<mxfile host="65bd71144e">
    <diagram id="cNFAr3NhE4QB4EMsQKAW" name="Page-1">
        <mxGraphModel dx="876" dy="649" grid="1" gridSize="10" guides="1" tooltips="1" connect="1" arrows="1" fold="1" page="1" pageScale="1" pageWidth="850" pageHeight="1100" math="0" shadow="0">
            <root>
                <mxCell id="0"/>
                <mxCell id="1" parent="0"/>
                <mxCell id="2" value="" style="shape=stencil(lVvbkhU3DPyafXX5buuZJP9BFUvYCmEpILe/j5TFZ8etOT3hDc66Z8a21GrJ8kN58/XD28+PDzl+/fbl+bfHv57effvwUH56yPnp04fHL0/f9F8P5eeH8ub985fHX788//Hp3cv/P7+1kfav35//tCf8/YJLKaRoqBz/+f6LhFr/++WXF8DHp087wP52AOQS6qSAAoAeklBA3T8pS0idA+YGKDl0Dmh1B/TQGgfIBqgxdA7oaQfUIIUD9klXCZmvUusboJXQ+D7UfQ5thHEB2D+ppzD4HPL+ht5CSRSQxg6YV7YU90kPfSez1hgEAIWbtwJ20xg9RL4PeTe+MUIcFDA6AiabdA5tt6Ux+T4UtNYh3DRaiGUDzMj9oYexv2HePOQcMMMEQF7LcArIyhq78c269v4coH8GQAuVAXqQ3fhmX3t/CigxpH2n51w8cg7QfdiZT/QRZFmVhWRfJVFjyfcBykJAAlLWR54DKtK91FCJtdaBvCSNTrqpA+2rJH3xyDmg4rIK3welLWAN0V/IKjXBnVZAJICeMaDoJ3Xicb2GERHASKDr8wYuayEOpMRYwDQqjXFdwtyJTE1DCBkrk0YHYNw6MnqcaNglc1DAqAjIxFqVq8vOfOoPQpZVAaMgYBCPGzXk4QDEWhXwPe4f5hCJaQzlVgdoHNAn7kNlG6dyKiFAiGkooMM+6KyIP2iAghhn1sreMByRdb5Kc23T0ePYxglKOPXpTFZJI1pxAObTGtFSRoCQVVLAhFWay6XOAWoIwwHYG8oJ800OQF4aobJJ16W0D/swiccpACNQp2JdAQLWykWihvHsrLWwT2pL7Bz8oRCfVoA4F01slboj4xgmm0NflnOTDrLM8Rww0DT0l84mPZ1eamGwT5I1xRugUJ/WKQKRmUgk7C0uoCgtFAZQJgUpXegcTOzsb9Co1xnAaQ3NUFguqraJgLjU+DmgI2u0RmlGnAxVBdXZKg306dooVSqpQBS15JVNeqK6Ly1M9gZZsvYG4GmZAjDF5zSjgLa/IWfqcQrou3knoYrMADuRaVZEV0lQCWiiNtlOC9YENNlkGYpNev+kyU3JrWqnYd32GYw7ZPb8iUzcVzy6Z6kVn89o1RKFjuPZ+jQMVrywpHQBRtQXf9wjsA6+zAWAcnqD8SyL1qgw9ufXJZvuRnMcT+NaXHR7c8sVVe7pQvB77mOq5yFuZpp8ag4zd6pTxcRSmIpJkqp/Ml+l5lrge1hEax1LmZrwsPEuPtWV4J/nzhMjJk8KLTmHQg8tDCmNQ8yXtYH3ygsDCChRgihl8cENUFYx97ymIljmSTVMsmXGUADoK6s8BxTH631Z4TkghgFGNOik03QV8UHdMjX3SbdH3KvPFQdguj8lJF79JFY9E8x1dDyrLoyzRSUf5ESOjmcpasVAo2vGquEFiVfHM9WVMaHV8azQlrA2YmbKNsD5QaVMGlGi6XhWdY6oY3U8i5RxlaQPfslMNKIS1/HMfnR8wvGVrGfESpCOT2S//PN5NThifVrH8/UEotbxTBlEzIUSL+rE9bQDkQph6hiyk4qRricQu47PxD5dbSNleo4SVwJ9lK6Esfz4Qv0rrrh7tB+6/nBEaPZJx0M9Sv0lUnuDQG/+xf2xu/F0vhgy6sX+Rrc+k9uzW5/G/cX5I7cfHJ9pOua/J9NDAT/fTJVWRCFk/kK/B+pi5o/cfry/c/v5wfHDrQ/jz7RW48iHTEE4IZ3pfLPLbQutuRUXTwutPt1E3tFfmFJ3fFtpKWm4VLsthr+nf9z4i/N9FFg81TuRcJ3mPiYSnWRiLmCS0CljxkFmdK6Awc73bZcTAljUzu7QKlWaoFs64OyanUxYwgGGlGjg0JQGD0vonDVlgvOeQT9IU7KIJQxW0q8TmbHSkkq78dprysqKf5aywp5R4W0p8f49vHzpU+5IA5lP6SNN33zJIFIiGh2ZJdLEwUoe4DW8bO4ODDNNlKxks48v/IhHUAnxwG0lJ3w+rYu6khYXQr5kxo8KrSQHlV0qzKzkN3C+vDadcb7MHnT8TDCe0a4IKu+LQw7B5zfK0uJaC+YKDHfHg31GehCU4qk2+7FXNCruDQDRUmhdURytZy4vrfINhcVB9ZDcehBv28YFlwJAYVqxixnGxAO2mlah6J5lQ2NY7bR6aefR+8Y1LkrV10BTtEGzUDs4heDE09DXg9MboNNOMimYmFm/HTONjEp2NHpYq4QHAW0IbeYRl8vNC8oW7Eqc3KfnxGOIOWgXlv15N40p/Dh4uNaCRI/wNOyAVLPeHA7AToFKG/TstBiOtBufdENlofbLWm0UAC5qDRgsdlbMWtRpmdhRAJiG0QIDFNeQJJSXZnG9asIn7Vs8hDa3TZ/aRS6prE8luVdcdMI4AO3bktAiAljQsm4eeMOkJzfWL1QQwPpUxkDaMH7mZ1sglBTADm+s7de94aLRC9/Qrxq9fOMjFc++y7DRNHtUVFfC05HhHaKsE517AOyqugBkPI6RSpPOkbH2K/zUzfoYXWsl7cV0csaoj5h3v9HQYeNYltrdKZeJg4t+Um/eLG/L2NxvDkQmfdITO2mmYV23jo2Zx1lfr3sDk2TWOewArIukDuxzF37M5bN501zElqy/Gsy70XzPOrhdQzaLu6W4jeNHD8XVpiVSqswd5b0KHNbNYymh6z1jy2rlS9dJz+ZgtwFAYVV+FaVjbUsjMQtZqWISNDP1aSuog4ZL1ONeT6AOAObTyaX21j/HL4pA+4AGYlbM0FQSijcaiDMHQGDXqMdYwxqW4GZJpQ13KWIvpgUAtnHu6HTEq0nDWa7SMzU+RzPKtqwGYvvg0ixG9/5aU7vdovif5We7y3UB2P3BbotxWwIXrY1qDf9JyoWsimCThmYjnoH7m4eFF4dtH3Z5n4UKLH+XS7mQ3oOKKL4vym9mra7LkHHrKeDik0CRWXGGhKzkjwGEnpUYAA5TJ7+PFlevxAHA2nQN0BFA/SGubOEAYGVTAzQH4BuHRbJ5daETWxC4mvFXFRPXSwaAT5Kre7I/fHX3CqD/eL0p/P7p48eXi8bHv+PNYv3p5VZy+flf);lineShape=1;sketch=1;hachureGap=4;jiggle=2;curveFitting=1;fontFamily=Architects Daughter;fontSource=https%3A%2F%2Ffonts.googleapis.com%2Fcss%3Ffamily%3DArchitects%2BDaughter;fontSize=20;" vertex="1" parent="1">
                    <mxGeometry x="69.11985798100329" y="124.09480025024129" width="548.0757240759211" height="93.66835605608074" as="geometry"/>
                </mxCell>
                <mxCell id="3" value="Klient" style="text;strokeColor=none;align=center;fillColor=none;html=1;verticalAlign=middle;whiteSpace=wrap;rounded=0;sketch=1;hachureGap=4;jiggle=2;curveFitting=1;fontFamily=Architects Daughter;fontSource=https%3A%2F%2Ffonts.googleapis.com%2Fcss%3Ffamily%3DArchitects%2BDaughter;fontSize=20;" vertex="1" parent="1">
                    <mxGeometry x="160" y="150" width="60" height="30" as="geometry"/>
                </mxCell>
                <mxCell id="6" value="" style="shape=stencil(lVrLchw3DPwaXVl8AuTZcf7DVZYjVRTJJSuvvw8YFWdnGju91m0tAzMDAmg0AN6VTz8evny/v8vxx9vry+/3fz9+fXu4K7/c5fz4/HD/+vhmv+7K57vy6dvL6/1vry9/Pn99//f3L1Ny/vrj5a/5hH/e9XIJNU2tHP99/0sLKf//h1/f5Z8en/fyLZQC8jEReQldDvI19EHke+gJ5LWfy5cU8kD5SuRrKE6ePb+HqB+QrxnPx+SVyOs67p97frPno3wnz28a+lHe/BXP5aWE0jEeyHmK+QvjoZD40RriAPlG4kdHiA3klTy/l9Dw+aMQeQ3tGJ+yPvCq/IjrcRf5TM5zlCBOnj2/Lfdf5Cuxd2ioA+SVnOcYQY/29qDke1KMK16WQopBmAVjOWhTyCunzxTS8YiSxRx7Q8ccSxoGe4OGUg8KOdEsGIJZZmlWSJqZ2wCGsn0Ss6GGfLTBkIyeUllnsilYqJDIHjnkI5IW80wjCh5KS+gk9y0XEEvNaAJefYQG4JKpH7qhyzH4mqUzsaE7uG7caMv/egyNiYAMYGTVr01BgjCjBSusDJpyva3IWQqagwhVkKPRauHIjG7oONUgXCHBGwaN1t4QNXqidblXrFMTyVlo1NBAgSOrKUBOW7AUZkNdyL4ULOAb83QN6VirLAc7V4jHfBibVWfVrcMbZNXfMwXI6bGl1HWFFMrxDbsKcFah8ZgGxUoVDFf7JvqGjWJuChoisVoLRp/hM2OdGleC7RyhjCYZ0IENRqSJ0VKdQl4nfV0hLVTZFNIqe9eZXnfBFEMlNjSL7yP0TXwmp9Qi1izLoEHCtcrijjuFSmww9gxsbwI6gb6iiJUG6AyYjP/HjAqMMJWIdXcqkGM1AibpI59kLVhWZzRTiFeOleG90SPvOIYzyWDIKXSmkJebdrGUGMPCNs/kWTroKpn7WGV9z6IJO3lWfyoyRJNnBucFQHt54jNLHVd8WJ/nWLdVN1asUkhw/oX2SSkMkM+871/EbpOPi7WfnCeEqDEMxsPa6nI2+UqppCzuu8lz+uxwwhpX2mNg1huAJwJE1hQBu2hbp3VdwRVao7aRWGwplkEh0tYzWRU8+qC2hQNnCnoMuhq5QkXksp4kkywzBeg+DV4rC+uGfsi86zEFoIUW6ozPmwJ80kRLBqYGLcdjtXNrzNOCRW0GCzNasJIrnZFMeTejYj29uJZ+FcWfNIBPAJIgI+REJAkmf1ztxpm8DJBndNAcGvF7GN+cAeCez77H3IPnc6McK8qzVsfkYYYaKdZN+WM8JDrDS664plBZQFuzmEGe1VaTh5liWil06i9I+oVkZ/GgH5RvGP9sRjjjWdBeLh/debJ4EOxvEq2tU/5Y/CLt6ZKj4XENDc/kC8pTVLd8dPnF87e7/LqRj+75PH6qgnxilVU9ntCipDjzjrQjmPIY/zfw6qPyivhPybqzVymX9vg2CxhXqK5EsvnS9DAglmEGhyBo427nGHCb2SLwpMlHJxhVEabQcFZpZIh+UsP+2+gWmyEYe4I8q423cdv8dkcZG/ukjG2BkVJamhL2BRIXWJ7x5AHT0Mqn0niqRtyZ3zpOcubwlCS/YqerQpNNMLS100bFjVp7Co02ohUay7LmCdfnExgTvVEHuC6iK22EKu5aLhPzE3sh5OaGjQ330F9daRIMHIv1jV2cRqgbx2SeZegxpStBw6IEb5A1pj2b3+DwQCi0ZLf7mdMA9gZZgL5TYBTwypRLaE8w52jiFFicus3M/CRidM24c+hCO7m6TUj2x0pSwcCwuthjn9QqFsIbw8PWkYncGIBKdnOcQbmXNFypjUhtMPiEfnfwXagmN67n9F0r0uWR6XpW3YZsFHqpwSAXCO0c17NVTkTGM4SOc3pyG4RK/WAKgKt2Smx5agrVTzTZKidh1zjnymxpl3Gv3hv/pLxI2q72MNQwBRiFdM7C5joKqufgWz53nUO3Xf6ZAhCSOUhkn1Qx+IwwMOppCgMYyaDjGTv1CgpCS9ZcAMOdlMLX5OIuvQzawcya6fbqrAJd2asbLDA/dOxhqtLlUncXU2qhUDnczq6MZdV1hYRUqfA1ucEWHOu8bUYcZ7AFZTdzsjTXvdCVFDo1Hg1HKUYm2FbwgnP78Sa/+gIELvGd9FDsrIzjUxvUMQE6PjKbYdzE9/aj4JWuTqmMBVLHcSvF1W0ae5GnV0yKazFoJsyGAtvzwuQrzvk5o5eO4zKlzG1eiDmWBU5vmxsnCvXvvNII+Ehp27wyiVfqhPHC7L+fdYTGVIHPy62VcsXvYRXHQKQ4f7F1b8dxLs/g+XqMN7bFmS2qez7fV9eG30/Oc+63M8qzDrXgOFTpYsxaWrg6JJSf5oyFQyhemXzD+GEd/JTHeGZ1yeTdFc7Imru8Xr/VYn6/IK9KfZFn+GPykL+Nrm/mbhi4AS2rs5t1V4x5PHzsivpNeftxuQ//7fHp6f06/f7/8f68/en97n35/B8=);lineShape=1;sketch=1;hachureGap=4;jiggle=2;curveFitting=1;fontFamily=Architects Daughter;fontSource=https%3A%2F%2Ffonts.googleapis.com%2Fcss%3Ffamily%3DArchitects%2BDaughter;fontSize=20;" vertex="1" parent="1">
                    <mxGeometry x="141.59412386012002" y="233.15316285133076" width="115.29494037481496" height="105.13053353416565" as="geometry"/>
                </mxCell>
                <mxCell id="7" value="Data som innehÃ¥ller allt den vill visa" style="text;strokeColor=none;align=center;fillColor=none;html=1;verticalAlign=middle;whiteSpace=wrap;rounded=0;sketch=1;hachureGap=4;jiggle=2;curveFitting=1;fontFamily=Architects Daughter;fontSource=https%3A%2F%2Ffonts.googleapis.com%2Fcss%3Ffamily%3DArchitects%2BDaughter;fontSize=20;" vertex="1" parent="1">
                    <mxGeometry x="270" y="233.15" width="140" height="120" as="geometry"/>
                </mxCell>
                <mxCell id="8" value="" style="shape=stencil(lVjZTltBDP2avFrjWT3PtP0PJEKJSgkCuv19PU2HxL73ngiJh5D4zOLl+Hh26eb14fZ5v4vh9e3l+G3/63D39rBLn3YxHp4e9i+HN/20S5936eb++LL/+nL88XR3+v/5dliOT9+PP8cKv0+4QIoYf+HP6Ysu1Pq/b76c7B8PTxf2hWK29pVK3bYXys3aZ5K2bc+RQrKASD0DQCN2gEAVAGIiZgMQoYAAnaq9gxRicOdUKbsdInHYBmS9or1D6xQKAGiQigVUCmCHkilWC9A9wQ5FL213qJ0EXLomkm4BlYQBoFGzqadLVNkGtEBic68GyiBXW5phmoDSKILka5mqA7zfah1QSIIF6JFAHDRMyQJypY4BxXopp1lSW4DqAIEYA4p1a3ovqS1AsDukTAntoKQhFsDYrbqejYPWYAPZOpLZVlxs1MGRNJmrPdKZ2dYB1deD8kgCXtLc9Edi6KWiqWHjwB0WUF6UqHJhR4BM2dIMV3gHzZxs48CZGihRZb5kU0P5vCMAU7Ne4jBLap2M9YqWZmSy87p9oWwDrekOUi9GElc+JMBFLJ5jIuwNI0TOQ1TQ+cPsHGf7AGKsx3UNN1AB50/6szh7Bv5RbmjeHp0nF58RYTb49SqIlL19RPayXB/Ft0bfm9WfIEHronHyrLqtNlhtfkbMK4FadvaowkrxXTNRxCTBzdkXZK8F6e3/95P1fFD/dL8+ElPN97M0m8NWPS7qC+pH8fkZKYF4aT02x4nTAev26k9fv6hexnFt/QYocpTOUnf2yD9J64udPVSOC34LWDgqHRRnzyC+2sVKcvYZ1Qt7bRBgD9P66r5+M5alH7PXdmLt82wgm6LU1kudAdlSKi4/ZU5gW2KLFw0SbSCLgGkLTuAGkrzo1SaPKFca1YWMiCDGnb2cG10TAcpCqHTIir2ROHXGkOa6rudoJcEjcXivkwvFiGRyX0rMNse8LUB0O2DVq6P6x3R1X5IvVu463HfXDfBsoAAvnzQfUeSqn2SvzDfjvcFeekxQKNTVF8SY0dAdii85nQLRE0RPvofrnImajhZEcbOydgXAwiJeJo9xG9CGFP+uowMMEuKy4GFltnBlbLTZOsZtxJTsn1F0iSsjl6vR1qfY2+oldfHuktBjVvWBkwLZvrDnGY1MRnKqenmhsYf9mX16a3ahS+vIJQ5QpiTbGrncBDWqHLTEuJj3e4cvCkqMoXgA8tIYpbsHINU5RFfyAPRsqQ0nBw/oYAcukxgvAWiHOHX4uVFjadX9ZDd2QFJp8VTbZzauB9oz6/AROA976lb7AuyDfzcaDQwUz6KBqj0aBT/6NH3dXj+c38HvD4+Pp2f0y9/9u7l+dXpzT5//Ag==);lineShape=1;sketch=1;hachureGap=4;jiggle=2;curveFitting=1;fontFamily=Architects Daughter;fontSource=https%3A%2F%2Ffonts.googleapis.com%2Fcss%3Ffamily%3DArchitects%2BDaughter;fontSize=20;" vertex="1" parent="1">
                    <mxGeometry x="112.87963199336707" y="233.81077825931106" width="8.582044937837932" height="110.38445963726426" as="geometry"/>
                </mxCell>
                <mxCell id="9" value="" style="shape=stencil(lVjLbhsxDPwaXwlJlEjpnLb/ESBOYzSNgyR9/X25cOQuufYUudm7nJVEDsmhdnzz+nD7vN+V9Pr2cvy2/3W4e3vY8addKYenh/3L4c1+7fjzjm/ujy/7ry/HH093p//Pt4vl8uv78efyhd8nXKLUF1BJf04PBlM5Pflysn88PK3s83w77btQbtftC9Xi7RPlet2eqSdnr5W4XLdv8fvSqfJ1e6WavX0hBvaD1O+nCZUB/FMoewe1RA0cIFfS6gC1UUEAJR4ekKgAl1qMszoAN2oIUGj4Q3OGW7IoiAeYn9/XvAzolPyWLPAMaMQpxjkPEsBTrlTFAwp1sCVW0sAMGmABc/o7z85HoAa+X+vkzbS31EvAvtPw32dIvGbH8/vPiVgAoFEKHrIngBbNPOSpbUfo4AiSpgdXtFCwglQSnwsLUzMAdNKQCzw/cTn9zYmeeC1PP18GaMwFO1UBce5GAx832yQjgFLyABXIjJFJPKDzXPMyoFH3gGHcA24dI1bJUWmAMxhAvVttTQFsNcAIAIHpswB8pIdSQ14a1H3FGNYZMKCGFQZlkED2OpUIULSCbaBHAKoxY0O+BYC2pJNqKwDKB/P62JwhoRWEJEe3onwwQA1bUpgPCxHCCgJbur0OHdTIB7lkzSkculLHcZANoIKGaD4JKsAAqEcbQFsEoOptYSoSAYoTSDYpCt06NtQQGOmczh1tFeqMq0APKWeOw4Vpy76BAjHmBlb8bkBo2PdEIgCuYFLGr7DywzU2tRqXUEy/tNkTEukfB/B0ymoMQG2xj6nKzz1IIV97jRJRB8w53RR8LXAFNdkcOnXFo8BZH620PSN5YmXFZ7WJNKRaJceEMNUogN+2gTD+MMNC0zge2iQWau02jURAhuKh2nznAZlnJbkMMCUfABmewXwSuJQFNl4+h+l8hgK7nA0DIUdN3CdQmGzeCcWy4NZur/MmcEie2AbCfGIDCCMARxFXMyTfMqoH8jVSEIfcp2Rbja5oNs4SRxqbKQoCcMxpwflgzOk+DiJ4OE5Rk2mGY59JMl/4FKsTjXE2vS/gyI2Gp2o/S4PLyRALgHVpFIMaS9LADqozQKsWjZoVxwFr0UJgP7yRJdYf4f2QbBQAEhkl+n+xB9/PcRpb9gPOmzeaXuFdSbrg/w4qS9r4B1eitOnkDfJnK8EqTMmP3v/9395+/LtsvD88Pp7uKtfv4+WkPTpdbPLnvw==);lineShape=1;sketch=1;hachureGap=4;jiggle=2;curveFitting=1;fontFamily=Architects Daughter;fontSource=https%3A%2F%2Ffonts.googleapis.com%2Fcss%3Ffamily%3DArchitects%2BDaughter;fontSize=20;" vertex="1" parent="1">
                    <mxGeometry x="93.0836188390299" y="229.88695901579842" width="56.64713418805291" height="34.699930981808485" as="geometry"/>
                </mxCell>
                <mxCell id="10" value="" style="shape=stencil(lVjbclshDPwav2pAAgHPafsfmYnTeJrGGSe9/X116sE+CHvdvPmiBQlJq4WN3L093b9uNxze3g/7b9tfu4f3p4182jDvXp62h927fdrI543cPe4P26+H/Y+Xh+P31/vFcvn0ff9zWeH3EdcatbagOPw5/hIp5H8/fDnaP+9e1vaV8mgvFCqwLxTLYJ8pBGCfietgbwug9ZlUBvtGFaxfG3Ea42VqAgCZ8hhAVEoNACLxeEIcKKfrgKJU4whI0KXCxDoCGtxBC6XxkCT1Y7gMYMphBFRqfB2QS3egA5L0JS4DbIcxhlSogUTb33UE2BIpAoA5MAadlbRcB0gjyQNAAxUQtFitOkAiBS5J9HnQSqLXAVb8ZTzWEqmBGKxyZKzWkknAsVq7i+u32jNzERCtEMZqtYJPCFA6QZwAiSIojZipOIBSBnkwQOARUEmRS4mKI43Qi+XaDnHMtPFORC5ZT4+Ja7Yn4NVoxedcsqBB4iwGHvOwUC0+1lj9DopcsvWiBzAoPouhsgcgsl9mx0gzRv8V9YOSpAmA+qF1rl67BDIt3A9xBRBEAtKJcQUoiASS7+klcSBoA/gYSh9611zyma4U0A6BmnoA4lY+rbcCKBgoxkuleUABMRgvpTLtgIqvXgBAXtIp05UiiME6ToPPA5oPBojiAXyDl1xpKFQzFoOj+6VagTixU6rZA5B+szw4ul86Duxg+o7nFgU0Y7WUqgc0VK02smZeQh0nlKYWzUgJpE69q8QF3NM6tWgCx/phgLG3Y74YAiTX1Ilx3XGolrzwXmIG1R0m7k69VK7Zu6wxnFdhykHoabziv9OHJgIyyhnlsRNMZSAtlru0O9kLlMR1EiWnE77sf+j8tlJighhPushZaT10V1qU2MhHpiYLGrehT7KVXkUUaUWXHSBBPuLpOmmaG2aNvXQzVY9oXqag7d4QgUspko6FZ1cPJN2STlcZgZnONtum25UClyxEd4k2/kC9uVxcphsiUjGafXcuExvkQZtX9VYsAgB2aXUu2fBCw9CK2d3s7aaOTqmUSYnBW3ENfjwrNfR0wP5+mOD4t2uOu4AyVfTSoL3Mun3oevqyfem9eLZX5H/pg/tsn5B99aowEAP/jZ/Zrx9BRbTYtc3ZHknzJp1KVvboKSn5p60b66vX2Tf8L/7dJsBHFZu/tfrzR+s3Unb26HVhJQj+r4A+/PZ3094+nB8aH3fPz8d3yvX//mHSfjo+asrnvw==);lineShape=1;sketch=1;hachureGap=4;jiggle=2;curveFitting=1;fontFamily=Architects Daughter;fontSource=https%3A%2F%2Ffonts.googleapis.com%2Fcss%3Ffamily%3DArchitects%2BDaughter;fontSize=20;" vertex="1" parent="1">
                    <mxGeometry x="92.75910363725939" y="391.4289866999202" width="15.98406973770407" height="114.38797138121149" as="geometry"/>
                </mxCell>
                <mxCell id="11" value="" style="shape=stencil(7ZvJshzHDUW/5m0rch7WsvwfihBlvhBFKihaw98b6eeqrrroPk0uHaEdB6A6E4kELi6QL/m7397/8Ou7lxR++/L508/v/nj98cv7l/yPl5ReP75/9/n1i/3pJX//kr/76dPnd//6/OnfH398+/uvPyzJ9adfPv2+vvDnm17aWl1KKfz19g9hC/m///DPN/EPrx9P4nmLKl5QfHYRH/OxeNnq9etxi+OxeN1yEPEKi2lbKiJOi+lbuX49bSk+Fh9bbyJe02PxGLY8RX7A52PS1ectwOpj2XIS+dxAvm0tiHwrID+3oN8fcFbrbK5nW3D99t8piHyi77dtJpEvsP40tzZEvoJ9ctpKE3myT656XmXr4A+5b3OqPOy3hK2rPQesv+TdHDf5CesvbQtX+1QMDGVsLYl8hP3W6L//vwO/L5/V/iYP/lPr1rPI5wryZv8o8gXuYzvi5Emegk/aopMH+7eyR5uvlG9bdt8H+7Th7Un+3MPW9PsYPS2cXUP/EX7vy1fNLG3r4A/dwvPVf/qW4Hz73EYWeVr/sPO63sexVZIve7jf5eeene7L2/amyE/wnzH2/z6yV9gtcFdhhv1+nxQmePRMe8A5FCKadJbd408K5HOzqk+YQqNf6FtwCh28aA7NSkuBrDT2750VOijMLX3bkqYCA1MY/AvD7QEPbu6Z96xA5zCdL5m3g7Muha4KdJuXwlSFAr8Qg8XToBqVzeR/4slB+E08sauayTAXuevcQ8pJIT45avcLeOXm7pxnBT7qHlSB4tLyb3EmQ5J85UZRhQlIxBTyNbPFI1c/igIC1RZYpU03d9Ic7E0hSeExMdtaJJNob/iW4ILFSjnpW230SCFeN20JK5KV8p6fDkAeEBGagiAww6yRFKxWvJo1z2cZJQtmNhBJZrUwJKDHyiQK31GT3MJ9ZNao52BAbgJONQUJ363u8fmhwnUPBp3KE4XrFe1lN/RDhavzdcYmM2rUWOiGziFqChoVq8cZNfIZXkm86Xm9cYZXMFGnLVzNuvyX7kPaY/WhUPjGJQUbFhaIT1gKV+ezSIV7iHqBLNpijot7cL9huCNPPkJ9Cisn7zrs53ReEwHd6YDuwErSPEEopoXSwEyj75X4ya4BvM+wtGAyi88IposWh+YbjZaUlF0w76NycgSFustbqJ4ZGr7tZBpsursC3U6GltSzElp2MhHCt8WterWSGZpOunWnwEViK0pKDMYOzS5EUwXKinUorBwZgWgtGo3t7Amd1LhnqHNwhdBXhju4gxu7r2DYoapCgIMrLqOYOxYIAtmRN50zuyEFTUHmfPQLdoGkXD9w432FsOOpk0KGc7D6XKJx74h/kqtGF6cAm14M59X57A5SnZVcgugHy3pf4UAKJ4VErK1jBXrFcG9AuHZVICxtUFt4ZFMgOBMPEHlSiODeVi7IfTD8Q1TyrQo7AyZakj+HgkXQYkquwdiCJ0W+qenB5CuxP3qjTZ5udFdqpie80M1hUKYQqgITk88Uw/bUdMK4lD+zCxcBM3pSRqPNna58IB+FbByI6qPegkWH0rXZ6ZGTPEGYoPax1EiQPjjy82C+HsjLlWkN9+vIapOnboQjY0yeyMZ78sQPBb2QJk/+H5z9617HPZIfKk9sclAA2ZgND1rYtvrkfEt160H5GlWe4k9QxGz2pJgbnP+3vR351d9n++j62x7xvtI+fSdyv9L+HTGXP9/+xD7qPx0JUu+fDdPwPf/vaP/g7Endynv3keJ5UNq8tSfxTeNPxZTt4xtTfkGbp+t+4XlJ8+upvOCsp+v5VnltfjWszVxZs+4Ldd81v5t/0vkm5RHaE2ys+GflR5zzEL7I8jV2i7V5bfJ0XlXlDT8k8DfXXOsBey7d4bGI+x0O70VmWVz1k/aId/98o4O4CSvpBXEdYqVOQsx3FCikGEwXbtYUKAfHqhMcnUc+4nFHzjCdltR1ZmUVArSksbMLJwXCxT4xWTFDU0DJkYimQMX9ujpTFYi7srswZdMcW1Zh3FVhQDJbpberpBMV91nTU2ciNPv7fDSFHhIUTgHHXaIyfH1icV+KlhyLAiFWZuh9WCQLTaREZTQWjQN7qI6lHBFR5iK7RCFh765FnaAbGeuORdgNVZjgS4sSFIWC7ZNVSMqSGFosWlOaGx2bTOb9UiyuXgUlh6H9x8G0vTmC9B8nzz2OrAc3LWMzgS1U1Gr/gVlHUwQzeR7NjKgUeUWIakYUDDB5gseMKCBmMv823cikKSArE3Xmag5u60YlsFfvGay0OjpBN03nsBScWanSWQqu74WzGm7QcjkfzRREd6cHgqulcD3pwbNypiDl2qLI+ReUdBxInE4XyJ73ULPr0lIFvBR8CfPESq7TjP14OzjXyyZSzXeaa0C22DddCw+NrijkOv5o1qShMhcEicuZ3dQCIW9TEGhvYB+b30UHHdOTkZnqJi8CIuNbs3FXMJxJ6N5ihNCtBn1xdKlrj8nANXrrUES2pnjoig43es8M9pxacq95rb/n4LzC33Nw/69zcM1ZifbgJ0kTAtc7dzQh6bOmIKpToD1UpTWWa/CUWvHOR+eQtJAzBTRr0Oo1MnOy5p6dAk3ljObOIezsyyMsLfhnvc2h2Y6kbCaTV1ZISsrigZnVhpapCIzd/XhpcWCZPdTel086sdnxzFZJJmwjj4EMXT8XAs21mBs6nX8a0TBV+acXT+R9t4wL+64u2rCZWN3wREP4vJ6+6NMIfMrintbwEMF6uqP2JHS+ngbp0w7i9fzTo4ajUOtpkwBhbG76p1OVR0vqXlvf5JGtSmp/biamqfCuIiu5rpM+9anEMRbFzDycmXxhgdl4Pe3Tp3cUQA28CsdTEIDEosVaweZyTHrfC5Ij0XUHMycAZToy9na6FoKZH1ppNcHIpupeM98VvVqM/bJGfm5DuKGtiBRQ2g1xE+emlD4fQsskVwNhCzfpMUXkWZLmIG4YJaUPAocE/3WqlQ7W9iZO1V7aR+9u4mzIomunEcqk/GpA8J+UQgs42ZF07JXnm7/xufpTcfvD7WX8T68fPrw9rD//v76kt396e4Wfv/8P);lineShape=1;sketch=1;hachureGap=4;jiggle=2;curveFitting=1;fontFamily=Architects Daughter;fontSource=https%3A%2F%2Ffonts.googleapis.com%2Fcss%3Ffamily%3DArchitects%2BDaughter;fontSize=20;" vertex="1" parent="1">
                    <mxGeometry x="100.14984790969118" y="387.3729880103749" width="427.5099114088954" height="162.67887540183673" as="geometry"/>
                </mxCell>
                <mxCell id="12" value="Server" style="text;strokeColor=none;align=center;fillColor=none;html=1;verticalAlign=middle;whiteSpace=wrap;rounded=0;sketch=1;hachureGap=4;jiggle=2;curveFitting=1;fontFamily=Architects Daughter;fontSource=https%3A%2F%2Ffonts.googleapis.com%2Fcss%3Ffamily%3DArchitects%2BDaughter;fontSize=20;" vertex="1" parent="1">
                    <mxGeometry x="130" y="410" width="60" height="30" as="geometry"/>
                </mxCell>
                <mxCell id="13" value="Lagrar en del av datat hÃ¤r" style="text;strokeColor=none;align=center;fillColor=none;html=1;verticalAlign=middle;whiteSpace=wrap;rounded=0;sketch=1;hachureGap=4;jiggle=2;curveFitting=1;fontFamily=Architects Daughter;fontSource=https%3A%2F%2Ffonts.googleapis.com%2Fcss%3Ffamily%3DArchitects%2BDaughter;fontSize=20;" vertex="1" parent="1">
                    <mxGeometry x="69.12" y="540" width="140" height="120" as="geometry"/>
                </mxCell>
                <mxCell id="14" value="En annan del hÃ¤r" style="text;strokeColor=none;align=center;fillColor=none;html=1;verticalAlign=middle;whiteSpace=wrap;rounded=0;sketch=1;hachureGap=4;jiggle=2;curveFitting=1;fontFamily=Architects Daughter;fontSource=https%3A%2F%2Ffonts.googleapis.com%2Fcss%3Ffamily%3DArchitects%2BDaughter;fontSize=20;" vertex="1" parent="1">
                    <mxGeometry x="330" y="550.05" width="140" height="120" as="geometry"/>
                </mxCell>
                <mxCell id="15" value="" style="shape=stencil(lVrZchw3DPyafUXxJvHsOP/hKsvRVhTJJcs5/j5gNhwNmzO99psss80DjUYD40v88O3x09eHS3Df3l5ffn/46/r57fESf7mEcH1+fHi9vtlPl/jxEj98eXl9+O315fvz59ufv37qK/tPf7z82f+Fv284dZJdRwX3z+03oYiv//3m1xvg6fq8A7Qmtc6AJC0TQJYSZ0CQxnaIUssM8KIM4CXqDHDS0jmgNsnzDl4lBwLIEuZL+ybOE4CX1GZAoTuUKn5+JZ/FKwEEvLRPEso5INfx1xsgipJXyn7EdbcDo0YqEjPeIZBXSg4j7as48koxL3ewwLVzQFDROQ6dfAyQxQG9i1QGsASaAdHRZ+1EmCNtt4qRAILo/KxRKb3tznNKpzQCc0xWlIDUpJD1ltBzEHKg66OkNK9XCeT8Ufx8nmJhJ6mQJM2ZUJ14ErIiGub1eZzwWF+kzucx/WCp6b24mXRdoRwBWObOO7Q0VPYY0MYFN4DpEUl+e9M4x8yEvxLSGYlgBw2Dt2epmWZa6xbH46gFVDzbwRMaJRU386gprQu5LHEo45DHxIjiIA5eChGwopg6RqXG6kJeuK2jUhxzzw3mbABLNiKRxhyF7LQjkTgYc1AulLLVwvS/qG+ASGVejcwzIFaq2mphmjM0cvJpRQkwkQrklfqRoNyqFKapAUXMdLyRI7XNUezLLQMUpIbpCJOxFpYU5Z7EJGK+M49CjVLmf7+Mcn2WDBAEXjlN1XOD8zAZLlsubtk5NjwzPA08mBs6ewxIkiHGlmtMYNIg2Q7AVDUbBTwCEtshDlbuSKEkyHkptp1FHBATvpJnPjIOt/JOOybb/UTzel49+5WRppHQyNY3pB3Tu7wUW+7MOysiruekaLie2uyMVYqnpa0PGd6TpY2tjzNJlRbBvJmtHSHuADzYfj/cxtkLKYhvEMcokYa/3AHoGyXkaE9MRtI0pHO/A2dpXVLf89TPi7wnxtPFsvU48COtgeaJAx3kHT21G8xRqNSJ9MTERFNOC/RG94L8c+sr1ptEhc7qDQiXtdzMDJoDBpaKJ+/T6+XcOTrawFs9rg3WO0Igq/chwfrMjGBYyp9kcl8zLAU6X5oB1nFApdmU6Xj9wrdGVcJcI/ihrkPMZrYlwzLNAFWp8w3sSZXs4J3DjsKSxjGfaa3xfInIlUsXl2PmmtkutXZgvrV1YpXdOo6pz24+wPpxs75A1PcaejYihJmi5R4dQnpsBUujLsf6Lpg09U6MkK+6pdn0tEEoq80xeWT6bk3OXHKsx2AAa8tg+GWMj+RIFlcQAGM841IfRKFj5hpjKQnzNSMwc1+mEVBolVcdv6h27w6JTFqbBf7FCMySdBumbes9NbTLpLbxWXAaQ4rdcKewScri7xytmx4lpjduZP0iSb0RIxFw2HblSnU+jAnIbp7ARq4J8yAV6lsKtpnpjkLiRDc2Plxb0iYm6metakBXF7ZCcTYzhk68jysYIA1l+MHCYwcAgC90VhYXlvqt/J7N7qE6mz1ln3UsqmG2p413sh55VMc84szeBeyj2FSqhGV2R0dGpQ73976+8k9AdRlXsIqTMWQ6GsMzewcRU1FWlf0Iz84esZmxyVRceiLG0laWUULkjlOX73Bl9CTHqewxNfsknJDOAOhpt29/Z4AK3a/SLsGKNsipAVi/36fci4lkH1D7vBWS39PRY98BpqHhLgB2iLSK2ysp3CHRSZkuydDNP480zLEMwManvWgDoIxCetaOtIAA9h3upz+V/wDAfnj/Mv/l+vR0+7C//3v8km+/uv0vgPjxXw==);lineShape=1;sketch=1;hachureGap=4;jiggle=2;curveFitting=1;fontFamily=Architects Daughter;fontSource=https%3A%2F%2Ffonts.googleapis.com%2Fcss%3Ffamily%3DArchitects%2BDaughter;fontSize=20;" vertex="1" parent="1">
                    <mxGeometry x="77.01248576261514" y="662.4066145036729" width="91.93811387796642" height="29.441569754347665" as="geometry"/>
                </mxCell>
                <mxCell id="16" value="" style="shape=stencil(lVjJjtswDP0aXwlJ1MbzdPofA0ymMZomg0y6/X1puHItOn5Bb07MJ3F53Dzw08fx5f0wBPdxu16+Hn6Or7fjwJ+GEMbz8XAdb/o08PPAT2+X6+HL9fL9/Dr/fn+ZJKenb5cf0wm/ZpxPxDyhgvv99x/y8x+fZ/nTeF7JB0fZd/JMxQP5QjF28ply3JdnJi6dvFAUIC/2fB/Jp31ADFQNoFByAJCp9BqpiwpwUfLk+hvUZgEqpUxOep8yOXBDVgVyDxCqCFBIageIhXzYB5RIoTc6RUrAhurImzh7qoAYNVF0PaBSAcyo0ojWACWRL/sA4UaEBlAlBdwgGoferaqkAC9JJe4DJ67F/i7AO33fW61aBmR1bvRfAJUyCkQmjhbgKgTUnhuiCQGsrnpesQCHVBKbQerpDJJaFuqsAChH1YmyuQGVjSnUvFEJkalsbCgtlPcBQi5YQEQ3CGWjUm1H7AFSsoCEjNYEM5EWWAUmjZ0FJGRDaq9XgIpzNPYpt0qRPW6wt1eg6qrsMx1OAQXxu7Q6tAIwqK51YfMqEKgcTznqLSAAN003GBtUSeAltcG0aQV4wA31ku8DoQlRcI56ZwGoQ0yFLlkATIi0GQUy5ndppXQFqKD0TaV0k9SMkzo5C0CR/m9ArZuywbgaL8V61YMioob2tJ6tEx2RStpHey5V3yJzf3hQo/s4aKdGPUtfm46SBcZBX6eerTlQRAMQ24xLiQIa4rINnE5MFc2VYuMQdVQGgdsOojr1CZiYODcTl7mytFDeBzgKfb0PAQJCapPCUo0rNDpsirHuE8hon22D8B52FB82QxyepduEt8QZDpU6EPYuZbj9uMaZxaFwmdkMe+HR6WYzgb7c6P5gc2szWhN3cHFjS2dHnJHfgz0d7hc2qg+avq1AWFw55azySBslWbHqoAKnK2aw5yNf3l2y0ZrwcCnXh38b/dt4Os0fBNbv7RcA/Wv+esDPfwA=);lineShape=1;sketch=1;hachureGap=4;jiggle=2;curveFitting=1;fontFamily=Architects Daughter;fontSource=https%3A%2F%2Ffonts.googleapis.com%2Fcss%3Ffamily%3DArchitects%2BDaughter;fontSize=20;" vertex="1" parent="1">
                    <mxGeometry x="64.86917055690685" y="685.8988904655255" width="17.65690748119094" height="66.86165760637982" as="geometry"/>
                </mxCell>
                <mxCell id="17" value="" style="shape=stencil(nZhJbhsxEEVPo22BM4trx7mHAcuREEUyZDnD7fM7AqFmdesbzk6m+ThU/RrYm/jwtnt63W6Ce7ucT9+3v/bPl90mftmEsD/utuf9Bb828XETH15O5+238+n9+Hz9+/Vpmjn9+nH6Oa3w+8qFILlNVHB/riNeYvo38PU6/7A/zucXqWGYXyX5+/Ojk5bG9b0EBmTJ4wY+i2/3geTEmR1aX2IdSKJ+AEISX+4DGTvEEWjiHQGyBB2AmCTU+0BxkssINClKgCw67pCwJzlSdfbSuFVjAKw+mjXD9ZEAOPEIFGiLABpF3QioBOI4rRLrqL0ohezQnITRcVWlEPG1IJoHAId0RBotSRvVikO6TIAiOh4Jh0xEGk0lj2ZtuDQBvINcR7tijcDM1CRmC1QScm3hCCwRGJBsQAAoDHASmwUaE1MRP+p7Zod1wnf9z7ZQEnPQjl9egodQLBbwxHWQs0mucEQh2RhAShZw7A5JsnF1pUFaSzf7DGARofCcAZA3SMxpkuQswPK3QpyfAqaoXgBUfUXCwkqORZD2K87NSqQxqdkA2svYPWBFGiyVaZfaXHxshywpWCCzzOSlZgsoAZAajfg+jNHYy+Y8DbCAaL17mQFMfdD3MqgjERMiyC8coSyCokS1AGsG/geoxkoYYVkgdvnPilAmAQHAFCH40rMdgk2ukyuZlbwNOaRbJdJAr2A8jUMqqbwl2RjFEqzyoilL45HQ0LCyiLbP+AEtU2OAt/KeRsilUxE3Amj7Mrk0mmNjpVu7vN5+o0CMVsJIIfk+qAXQHGf2ggg2MaH9ZuLzqB9jGUWD38ilfbBtH54QhVUU6wa8UTJRd7Y5o/aKtDp90Y95WtRdbyBv0wM5jLPWcTRDht4f3KYz00T7fHO9p1mPmd7A36azl5XawszFObnFLs/Kh09WCI4255PSqj0+U6b28L7NT+Q8a75irTw8v1if5ZNPP+Y/nI8fty8HL/vD4frhYf5/+6UBQ9evFPHxLw==);lineShape=1;sketch=1;hachureGap=4;jiggle=2;curveFitting=1;fontFamily=Architects Daughter;fontSource=https%3A%2F%2Ffonts.googleapis.com%2Fcss%3Ffamily%3DArchitects%2BDaughter;fontSize=20;" vertex="1" parent="1">
                    <mxGeometry x="162.9739809628902" y="667.8963765327296" width="9.132563884704096" height="69.36255354953778" as="geometry"/>
                </mxCell>
                <mxCell id="18" value="" style="shape=stencil(lVjZbttADPwavxLci7t8TtP/CBCnMZrGgZNef1+qxspeShojbz6GEnd4DXeX7t6fH972u8jvH6fj9/3vw+PH8y592cV4eH3enw4f9mmX7nfp7ul42n87HX++Pp6/vz1MyOnTj+Ov6Ql/znaBuE5Gkf+ef6iJOP//5esZ/3J4vcInkjTihWrZxhfKMuIbVd7GVyqjP42ppm18YOLxBS2SRmBgf7s3FArAoyAU42hQiZFLStW9wc4MOF2SqkxJgEGlOrqkgWoAUYueJTUaQNiSUNHRIBMDWnOgWL0BikOWTuJsYLkCzlCYWl0YgMCVQlK8SwXEQZhi8ywVwJJkktGgKSWQGtKouVyyRwCXalzUW6NcgYFQyKMBkwKXqnk8uiSx1+yqgdVXDINBSZSAS3bENuZSzhQaMKiURoNUenatG1jFjekdhVS3DaxcdDz0VLQgDpqojW8IqWfXukFZNAFihLfMGFllyiBsqr1NX/AMODV8VI8H1Wb4khw+gmLTmb8LXkAWGV55JLTn4SZ+9D9S+CReMT8uIyziN847lr71FowvI77c4j9lh0clMOWDevyNfBPnv6J4tR7OCx7mZ6Pi+UQTyvBOKERqKF6Gbw6PhvLkz4i3gYUKvq3kM4pv6/Rd8AHHK7LDM86fXPzzcf5IdfiM878Vx8+NfuLOG/oDNnTafL5LwJAQXL4gweE9HWBsWLl3vE2CisM3HLDP4cXjQ+ghWTfIXUjPBhWPDKuQMUWnHoeOzJ3xmVKcpKZbXRNKDVa9SWmnb3KFGq2lrr3ntiVd264bmMdjmEUgSyaIHEvViAYs2QIUxk5qiqcAA9HeSa70vgJaJfvUNnmBXDJh6opfK6xOk75+QVC45KyIa4XzcpLvbn4z7mDThsD+FQWEetpBnEGDYjmFvtNc0YQiZ3uUuDcITFfrQW5K6Y3lcTH2LdQFzNlQOu1Xq52CQ9s+6xq9ziWy3gVIXHo3iK9dZ814gcord3dnfOpSb+NGwd1AtACVFPvBbxsRyjv2+02tfWvbwIfm8UgpzLr7+kYE+sPR4xkk6WJu1tK7wRbebYy5rxZb52WPjxDv1j9rmAL9T8XjI+TfCceKp9piqBkeKRH22+iEB936szdkt/H24XId93R4eTnf5l3/76/v7Kfz1V+6/wc=);lineShape=1;sketch=1;hachureGap=4;jiggle=2;curveFitting=1;fontFamily=Architects Daughter;fontSource=https%3A%2F%2Ffonts.googleapis.com%2Fcss%3Ffamily%3DArchitects%2BDaughter;fontSize=20;" vertex="1" parent="1">
                    <mxGeometry x="50.921449618536144" y="717.3095583488307" width="130.363246610344" height="37.91759207543096" as="geometry"/>
                </mxCell>
                <mxCell id="19" value="" style="shape=stencil(lVnLchw3DPyavaJIgg/w7Dj/4SrLkSqK5JKVxP779GSL4yE421u+rWVghgS6gQbmoh++PX76+nBJ4dv72+ufD/8+fX5/vOhvl5SeXh4f3p7e8euiHy/64cvr28Mfb69/v3y+/vvrp81y+/XX6z/bE75f/SxKDptXCj+uf8nS9f8//H61f356Odg3k2KTfZEaiX2V2ib7Kok9P0upzr53Yp8kzPZNLN+2r12iTvYmrRH7Im1+fhdLxD5KL5N9jBLLbYfSpOXZIdEbFJU4ZyxmMbvtkE1inB2aZJKDjAPMb0hBMkmCNtE0O2RJBBUaxWZUIA2VpAEoKHNYVcXIkRJwPedNuzSSuFilzcDOdUDr3CF5ZBfEjTgAeXOiC05ErgCizAeqdXDjPG0SHROSdGKfBvB3exshuGHvnm86oHvDPs3PtyY10PPPzOyRnr94pnWVTECHyjXToGdRcl8Q15J3YMwEhMLyhkJOBJB6B5XEUrZUU8QokiPpDoE9CTZgde7QR452h0x5A5ZU94YghaQZ9ctVl1bESJRqEJsT3QIFXm2e+6jimdyh6Tjx7hAkkDuAKQ57JdM2CKrU2SH3QY9zh+YznfMo4+fVZYkSUqkkSoCaK9rKW38vo5HtDoE7VMmzQ+KNpy+J24oOiRKO1F1rs1FFzh2S5DmsaJ6dQMPAhzlKUSnjrIxmfBAAmTlESU4AAHyEoqBLd3VpVOZzezxuToNRRleV7koA7Wtlgeoes3P7KC34CzM+5+Jhgd7LIgTkexEGPUL4rMXrEdRydmc4OBkMh05kHhzS4sCaCRxC8g6FQBvstcWBCRg4+Dwg0CysqHHmw0qjhDeseWBRygufoTGYkCxeVMW9rN1yyCufOTTa4kDBt6iAyJs6HFLxDpVlui53yFwFVC994MAYd+JQREkh3o60YImJt+3SC1ozJ1BfKMrkMxw8Wu9SVFcHDg0/idXR5m9SdHkDm4Y3AqkPa71D0eYdAktcHvw6QIO1q+0OC1rZ+LkVsuodmArY8rBS9E7ifs2hD7F26EBMK6EDJSdyqcxAiyvziSptuWihbrwtVEOjRdt8Hi4/IQGi3/Io07d1gOanPRtkbLkvqMFUVRVVF59AuAxxq37Lk5g9BH13+epMPNcFo5C2BNRQql5hKO2dHWLcQQ41lg2TYR9BDlsY1qnwijRfeosSu7X5iR6CnqUZYXJhRTUIbMbIHhfa6DpvG/kdUBNXz+apnBvtVLYcqSSp5A2tewFQjIK1Zd/aQFeW6mqDLLtDp2Gt0Q9WeCcrqZhOPX+6FBIlBDHOnQpxoxUyjJgcFg1so6fQabMDZjMlRRtgDrPUw/SnfAXo+NAbVT1gpBOTG2sJ4zDZeW0Y+OIAyFH/BmN58IKhGy30yStDUJbVjOC7/50kLDVp21OQHIRlZ5hohYm+76ATsfF82cFuqyG2C/ejc80jI+dc9uWo8M8RQESZIZQ73xmWIWIPBY9twxBSN3lCSitzKH7PiyrPcqxRousjmV4aB3AqdfteQI6EK67DMF1ttzEQHcc8tpNIft+Ghs5mKigw9UsPthyuJwovM8VWRvk8KDb2fPPMVDo5tzia2J4DuvFAw3AFPtKUgYduOAq0cDXzCi/QhmPRLxfvFNJ9qXaw5wrVxTPQpZlFvzgPdDy1fVF5iA+3d/GJlJS2VPZIFe1m73avdKLY7D3eWOPYzu/t2ei7xcfjn65R41gtHyYQwl/Yu2k/j88MN/HzK9+979vjx8+P7F+enp+v3+iP/+8/yuNP1w/6+vE/);lineShape=1;sketch=1;hachureGap=4;jiggle=2;curveFitting=1;fontFamily=Architects Daughter;fontSource=https%3A%2F%2Ffonts.googleapis.com%2Fcss%3Ffamily%3DArchitects%2BDaughter;fontSize=20;" vertex="1" parent="1">
                    <mxGeometry x="345.0499579954703" y="649.9986186811589" width="95.44809282267595" height="45.36673821439026" as="geometry"/>
                </mxCell>
                <mxCell id="20" value="" style="shape=stencil(lVfJctswDP0aXTEkwPWcpv+RmTi1p66dcZwuf1+oLmURkl4mNy14xPawcJCHt/3T625g93a9nL/vfh2er/tBvgzMh9N+dzlc9WmQx0EeXs6X3bfL+f30fHt/fRolx6cf55/jCb9vOF8oxxHF7s//L5T434evN/nj4TSTZ6ZQO/lEQYB8pJT68x1xAIBKnntAoBq3AcLtdwOwowxckNIMmAC5BWEVEALl3geJlMs2IDKxdAA9IgKTkiPfA6JQTACgPvROJ6botwE5kXcdIDsqdRtQxOYhFxLgdKnkepNKoAKcroGkN6k6qoBL3jlyBlHIATLVSkUsANG7LspBj/CAGzVRKRYQQVzV6+AsoIC4Vk+x1zCLw3om1AlvVVQQprIghwISIkcgt9AgyCSmlG0iMtKgJcQWwCBzCsjGh0wJZG70IVkASvUYJQNIrTFs5qFYAGoDmuoULSAADSOZ8kIDIlNqFTYDQPZNaZpFSZAPyuZoAQVVkHLTaChwpCiAvQVU5EO2FaRHBGRSJM4WUAC9qzbfYAHIJG2WNtMfADRxbAGwgAIlWTiNmoCQW/TKmnGJLmo6gBn0aUBedmPfCL8OkJbXaQbF1m7X56iSuSdfxk6Pk9oAfNuItnYB1zudpHXb9W1D2vyYdoEA+5IuI9x3vhDb7F5fsbLtfJJaGNYHr7K118C6C4AoebY1rWsl6hrFBslHiqAHhDbPZlsl2sjEDrgEs+zaVjGZTx6UzmIt8XB6OopWnEF+fZsZTVwXN2CMWGMmdRuRNO3atd11nf8tbndxhwaUneJ4c/He3i5cWyrX5cU2OddqYV1+YtVdHg0Cny0vMc30NmVWBE8ey3/q9vWxvD7cr3ovh+PxdlOc/7dXQ/10u1bK418=);lineShape=1;sketch=1;hachureGap=4;jiggle=2;curveFitting=1;fontFamily=Architects Daughter;fontSource=https%3A%2F%2Ffonts.googleapis.com%2Fcss%3Ffamily%3DArchitects%2BDaughter;fontSize=20;" vertex="1" parent="1">
                    <mxGeometry x="345.14520880631403" y="693.170804174214" width="11.111893066333073" height="55.84451346323962" as="geometry"/>
                </mxCell>
                <mxCell id="21" value="" style="shape=stencil(lVfbchoxDP0aXjW25Iv8nKb/kZmQwpRChtDb31db6gVr4aR5WxadtS7nSPJKHt42T6/rFYe30/Hwdf1z+3zarOTTinm736yP25M9reRxJQ8vh+P6y/Hwff98/v36NFlOT98OP6Yv/DrjYqWYJxSH3//eUKh/X3w+2++2+yt7ZuIw2CfKDdgXajLYVxK9by9MOY3+BGoZAFr3dwZkSvE+IBV/Ageq4IScKbQRUEjDfUAR0jFmEUrghMpUypjUAAEaSB2gUgFBa6U6xpBTf3MT0ITimKUSYZZa8ScUJQEuNSscj8xIsHAGaGPQtUFqxBAojGTVRIqCaJ3MM6BBOTSlFgfAlDgGgOzTZJ/QBADJC8ic5AIrx8UDCnLJBJY8QEHQqsReo3OmbyNMkuyPaKANKFPVhU8gCFNECR6QQV6NO3EBiCCvVSm5vCpVgYDKHsBAc+aSU3WrpACgJsnqARlVLhFnDxDUaCoF8QBGJ8xluj4B8ZtJFiegwpkgJC6yhASRKcuiDqgLZFL1gIKaZV64ZFwC1DCNavOAjHrfstINziCdyXytOFS40onw36KW3laufcJ0vdGZ0Fyck3IFEOCSSS67NGmv5V3AghsJtY2PAixL7EotXVP3NJrHLE0zCM12a64jXacpBwQxAdxYDPgEG8xuiUtQo9a+3VZpywDi97K5FoZZquIbk61pEbhUch8488qk8IRcPZdsKWsAYN9LI1tt7UOSs9WVxxim5RgB5jLNgAjbt/1dxqBj6WPv9sokvavMgNh309uV9gPFkgrMU99S56pRBAEHis59KqACi3Uvwg00kIz9K8CdJPaWfjEvwJz7PedinsACY1RpzpyB77lvaBdztKdWaj5U1Nrjgmi4QUT2u3x4l2bJRwtoY1c6N5wsmWDSGMuTT35F3//gLfh9e3u4XLlftrvd+cZ+/b+/otur8/VeHv8A);lineShape=1;sketch=1;hachureGap=4;jiggle=2;curveFitting=1;fontFamily=Architects Daughter;fontSource=https%3A%2F%2Ffonts.googleapis.com%2Fcss%3Ffamily%3DArchitects%2BDaughter;fontSize=20;" vertex="1" parent="1">
                    <mxGeometry x="441.7046580018041" y="661.0031873366502" width="11.956582275449428" height="76.36629790368778" as="geometry"/>
                </mxCell>
                <mxCell id="22" value="" style="shape=stencil(lVjbcloxDPwaXjW+yvZzmv5HZkIKUxoyhPTy95XLGJDMWZo3OGdl67KS93gVH943T2/rVXDvx8P++/rX9vm4WcUvqxC2r5v1YXuUX6v4uIoPL/vD+tth//H6fPr/9tSR/deP/c++wu+TnScXulFwf04PmqcW/z35esLvtq9X+Ew+a3yk1pbxlXzV+EQFrO89lWINGgMDnjxKxH7ZQEJOyYZQQAihUG7aIFACO8RE2WkDB3dIfuRwGNQKg06Nqs5SZWoBlK3YtNYEXeJMybgUiMEORV7rSldHERk08jpLpRADaojHrLla5AnIUpUdvDY40/2mgdQ1awPmEdVtA+Gm5hJ7ysiA7Q45U3HAoFDShZPaB7RDoab7IWG2tkqOlUHMFEFa+w66Dr3LEzRgHbT0YMZBe02+3uXIQMqks+QdJZSlPPrrXIdRySV80eyWyiOHBK9DjnDsdbz2R6iYsf+aeH7061KCgq6Zg63TecoG75E/bFnnyOEKx2jw4Q6FrD8V45s3+YH5n5ogUL2D1wxNeLIUO+HlIC0Qb/jG9/BmTDDmZ5lGIwXMn2JmL0U0VHiMkCt/MH9cNnjIh0w1mHwGxOds/U/kUb3yoMuFD0gWdX/MABoOLsXrbT/CerEVLQ6fAmzzI/2I6iXldwYP81Pm+cCYb3WaV9ifz+ErVaM+iBGfG0XNNy96CBGuWXkjEReUoTadkhITErLuPDKvDuKCitzsoZHikHlLBmbKZY+DmGRjPi/xn30pQjKjvMYbGs2DSouoM+K6ZKwCk6WGKM8IuNFfa5dE+iZAbpG+hqw1wxgkJ6ynS5X5Deog8r3poCUNqN/yxCX5rkP8FpFo6nDnqyhOalxqz2DEC/2NJGr4zOki0exQxxKLn4LmQ61BNe7PObnIRqxbJpkgO1QQtHBv8siDmGWmZJujCPxxo7mu8GhuO3ss94MCrm+OhX6wg3idlUV9IMD17fVDHhcGS3jjj3xrg3NZ8LrRhNUVrj93ATpnz6r16mqgwPwkZ/ER+s8T3sH169T2DbXMJ69/7uPlx+Wu6WW7252uqq7f27speXS614qPfwE=);lineShape=1;sketch=1;hachureGap=4;jiggle=2;curveFitting=1;fontFamily=Architects Daughter;fontSource=https%3A%2F%2Ffonts.googleapis.com%2Fcss%3Ffamily%3DArchitects%2BDaughter;fontSize=20;" vertex="1" parent="1">
                    <mxGeometry x="345.78856447442945" y="711.9611270315177" width="110.74243467286594" height="35.91690500207043" as="geometry"/>
                </mxCell>
                <mxCell id="23" value="" style="shape=stencil(lVfZbttADPwavRK7yz2f0/Q/AsSphbp24Dg9/r5UhVVEypoib4rMCc8ZUgM/vB2fXg9DcG+36+X74df4fDsO/GUIYTwfD9fxJk8DPw788HK5Hr5dL+/n5/nv16fJcnr6cfk5/YffM641cn5CBfdnfhOphH8vvs72p/G8sq+NmlP2jWrbty+ZQlD2vlLL+4DcKDcFkIg4AUCgkhWAHaWyD0iZvE6BCyUQUmzEOqSYyFcAYIraQ2LycR/AUkSdQ/bkQQ5cqVYNkEaCHCYPRQGkMwnl4In1YNRIAeSQHDnd6Zb6rOwCdEitkAMeYt14qOTBsMZITjduGnfUh2qHTwAZVIkDcbWABvgQEtW4AYCQfKPCFpAYAITAzlapgJC8p1BtHyooq4ySiShT8cCBo2iqmiBDPVMwKURKqEild2kBcK/C/TYIQ5MFeMAfSbppOrRADTE0W9GYPAAdi2GTNFMGHqJUPW6qBJKOy+Cs+wBGSRgaTA6ZMlJK0XbD0EIFqUzqIrQeVuTBUTYeGkyal8lZEw4kHURldB+8c/3VfYTvfVq5QNPnN0tx0iVECJkNb8uE9oNQzm047ZAIfBYQukSs1kNEEXV6rfZPAZR2tgtZZgtMkuubYLF3cJCkojqeFPCZQUkLhiwXdAOIqhpJmhQBAQpFDRDNcQAgd1HUKUtSGVEh9OW3THbuZ8Tu4aMBBcpwWm7BJaIus3unm1noHipeTnaIPCSm3EReC57rNb5/rHLfYx/26Gwrci5YexRP5b72VvYg31rtZna9IfcXc7Aj5KiCeKYDjU09I5BGEZ2o8w2QA6Jq1Vza/WtjR4Q2rOd+tu45+NTXy//t5eHjU+llPJ3mL6317/bTSl7Nn2X8+Bc=);lineShape=1;sketch=1;hachureGap=4;jiggle=2;curveFitting=1;fontFamily=Architects Daughter;fontSource=https%3A%2F%2Ffonts.googleapis.com%2Fcss%3Ffamily%3DArchitects%2BDaughter;fontSize=20;" vertex="1" parent="1">
                    <mxGeometry x="180.2630221853924" y="652.1174863940669" width="6.301644277658821" height="36.22774793916051" as="geometry"/>
                </mxCell>
                <mxCell id="24" value="" style="shape=stencil(lVnZchs5DPwavaJIghees8l/pCrOWrVeO+U4198vZhVOxKamXX6zpQZFXI3GzEnffb3/+OXulMLXl+enf+5+nD+93J/0r1NK58f7u+fzi/910vcnfff56fnu7+enb4+fLv9/+bght7/+ffq+nfDzYlclp80ohV+XD1Sa/v/Bhwv84fx4BY8qvU74JBYJ3sQU8IngU5EeJ3yU0o/xGqUXwIdE8F2iTfggpR3jc5aigP99wE18CWIZ8CEQfJNYEE/OryqxAT4zfJfeIT4pH+NbloT51ULwJjqfr2IkXz1LmPNbJZD79C5prs8uleTLstgcn5ilEgfMJM4OeIQquVEMe0Z3Cz+D1LStPeafsDslKXOQ1KgTvaET2duMpSFiGXmhv1IXZfYhF2mk0WrDQspVGrlScRfBh0ajVJKEhga/yemol4G7cqeJc7IoBQ2UREkDJs4NjLSn/0LIbzHwvNaZj7YwEB88JjYnrnjiSJSKSoUOfYXCDCmyZprpWkTnBqpGE9eC9NnAy7Gxai1ic+Kcpwqp1h4Gy+0044OO8ZJ/DbzUpJAo+dcQVlPqdPc0zeVtfgSLUpU4X+mKqo7iqnNDOBsydvXp0wwNWPWVhfrMK57Uhpd/MvSa/cLGjGBQRrUcKQaFKzm3kZbziQbE5JmrTCMV5BkndBZWxRY1H0HEhYRc7PhEPFg9DvQ+Linm+3cb1X6ADzMB+NTuJGcBiduboxGm3yXajq+UwuKQRDu+DBV6EM+WEK9skKBmc3xkDImtv+GZaBOriGf14C1VMT5K4t8HPV/FP5H42HJ+H8P94Py+1A+/TwJqDPT8Re14/VMWWvrRK4SRkOSI+ErqP6Hm3M5nBLFQVqBLVJAWEB9pP8Ig8PhH2l8gaD2/rJ7XYdlGRx/4G2eR4/UZSfx37XpV/2x665iL1/3FlKNEXfDk/LfiY1sc4II/lYVRGl27NOGa+UpL5n3tu6qJRH4h2yI/wgjD0SZra1WTKnIZGJe2YW3mAgd049b35EpNJS2DphCDaksedOy3tw0yUmNz8mNR8gVivpJL2cjkuA/7OXF+ycISV3H6eaBppsOI+m4QxyVvF1/BsG65Z+VdpYOBj1z2FGhhAPeKSS4fITAyveALCeu2eBU0YJy37cdgEMajlduJi2O3vDJgLOalkebydm1rZAfx4oMtRznPt4hEtoWBCJG+z6XdgCujTXjMxedMlZlBR+21qQemdfp4OrMbZLrEb9oPnoAZXUF6xJ08Zuq0dzCQcQyDPG8nrqLg75KZfqwoYNoolaPSg/Zpo9pv1/aykLdBzUc7Fwj4Np573MYrCow2COF2NzdsTv7YJS3+chL2BQ2XTBr/huH3/CaW37HNXOGV7wfL+ZH4mxFvYy0/kEfwSN3otqiLWqPPHncm/5NbpmWXcdaolFoedznB0E0ONEihT/d1LP47RVPFkpHcMhVpBWWy0in5xjcxr8L9jz8vfT6fHx4u74yuv8eXRP7R5QWTvv8P);lineShape=1;sketch=1;hachureGap=4;jiggle=2;curveFitting=1;fontFamily=Architects Daughter;fontSource=https%3A%2F%2Ffonts.googleapis.com%2Fcss%3Ffamily%3DArchitects%2BDaughter;fontSize=20;" vertex="1" parent="1">
                    <mxGeometry x="178.41144459519296" y="649.1855556922537" width="31.665866777426533" height="43.99319837432625" as="geometry"/>
                </mxCell>
                <mxCell id="25" value="" style="shape=stencil(lVjLUtxADPyavao075kzIf9BFUvYCmGphbz+Pu1sbJC8bsJtY9zRqFstabxLV8/3N0/7XdTnl9Px6/7n4fblfpc+7WI8PN7vT4cX/Nql6126ujue9l9Ox++Pt+d/P91Mb06/vh1/TP/DrzOuJylxQkX9fX4Si8Tw98nnM+Dh8PgG0LKMbAFJom4DahJ1gCCVAPKQohagUuo2IBVpwwNa2wbELC35HELeBoQmoVvAkNwJoEqytGaVRCLgSP9YXwB4QiKkKK1aQJQ4CK1Zko2QKtWhVAnNJt2lF6J0kep0iJISrSUnXBhU6Q5ObNKgQUm1AlBshJxkkKThh2FZKl3qOxEsS00lkAgDfrA5NH6kgfK2BmpFCqF1NG/R1qkOA8Vsk+6gNZLyVhW1Hu2VdgGEqDbroZJJMY3uzzSWAr4MgOWs1OAhEUNAiG49ikMmdiSVUWy5vvJwuTi66PAhIitwKJt9EpEoMfXv5mlS0jegbOpeiMABLgcccpBqAqBZmnqYe9Wmq52FugSWdPUTAo5ILIfhuys810k7HlHCClBJDmC9W5bQ3GiENrf3BdBow0flqDMpphwzxPCtDEQ3HqFbHcCbsqS7DOegxHtfm8fsAqh0joLW5iJ0TmtYHWnM3XCrNHQFYEp/GABdtXuWBkm6olotS7AUY6nWmZOllhbTbgGy7cZVqafrqpHlSpPG8uBmUMm03xf1SWPwMuEwyINd4rBpskaGlc0VH7LKbOurvpZqm11+Wem5ay3vh7mzXQ4wbxYLqYOqsBq6CREJp0G621qX7Wbj/NnNtzjXyRZBbuHLc2O+rECfF875faULJTba2tz7bNyihjS599m0rdnbIHB9mxcA+ZLzT9Pcnh+EsfebvyrxkYD1ws3yZWnaal3ZdSIZbENSf2UIga+qulrosY28s1JZy0w3JzbU1JdE6FQDANy6jaKobH1ZtQncYlibgGpuLYTNOpOtzpecBZCpD1BH6iJg3+G3mI/d6v8DgB+vHxHuDg8P528Qb//uPzrg0fmDRbr+Aw==);lineShape=1;sketch=1;hachureGap=4;jiggle=2;curveFitting=1;fontFamily=Architects Daughter;fontSource=https%3A%2F%2Ffonts.googleapis.com%2Fcss%3Ffamily%3DArchitects%2BDaughter;fontSize=20;" vertex="1" parent="1">
                    <mxGeometry x="210.0703868826365" y="681.8903970663234" width="23.688541702013183" height="16.068841513917096" as="geometry"/>
                </mxCell>
                <mxCell id="26" value="" style="shape=stencil(7VnLbhw5DPyauRKSqOc5m/0PA3HWg3XswHE2yd+nemfV02T3VBAE2FNu43GxWyKLxZLmpG8+Pdx9vD+l8On15fnv+y/nd68PJ/3jlNL56eH+5fyKTyd9e9I3759f7v96ef789O7y98e7Bbl8+vD8z/KEr5e4PiSNJSqFb5dvmtT27xd/XvCP56ctXmVkg+/Sym1869ItPkYJiQRkyckGZIksAM/rNmBIiCRApVUbUKQEEjAk2xxFlZBJkopEu2k8oRP8ELUrKjIIfkTJFo+qkA2M5HOqEkmRh0pRg09SB8Fnacnh2X4HtuefX9h6mi9xmg84xneJ0e23EJICP2w+QUKWzyHFrqdIZusZvmkq3W8MQUJwXfkfZ2+9oDXXlTRB6HqLj4F2JTJUog8YLKXFUyJ2zrnsa7aQgrQxSK2OFI2zKEwSrKxQSWTTvU/WrwFoVJLW3iTasmUQg6lpkWo3XaJUpixZkn1DATPYkpI0+4aqUknhevR1qCALeUNbtW3lKhbJ9Bdlst22DAmmv0WSmzlpNtRxQJp6vgZUmlZsUe2mIcmsgSoKZxUMdGRzsMZdQJ6icxiAumbL1lHnI44DMJNcQJNB6pDR025KoQ4sIEuwqgEdyaSBdDc4F6Eig0SL171FOkmWIKTdbnqjncfaOna7HtTxYNb7Yd7pJtpM4qYOia3Is3usbzzEB1GX1DiTcAPvc4onULwTAOhgJ1UOXukhg0ryE739QnMmsl+d9m/Fc1HNU982eDZ56lSrDV4J55rXbKyfusEp0Jv8MEOLpsk+/5m5L6k2n+MHs9zPTfCn0PVXm39IXSfurnlzCj4Psh5kb6eMbD15Vn+Dr2Q9yZsv4JWsJ+72q/R4EA5GgRIZDTsVDdIJ39ZqbmYTW3/w+QHfOslnFHV4uFPCtzRH6aZfWP5h7NTjmT+Acww7PJv2s7s3eGaW+/T2m/02ZgN/Eo/zarMNhoIxj4aKJdeRYebgOKDtWgaujZRAs88pAhKZATnNlt2SlLmP4L1y52MV/sa1GWjK2h6+1RkimOFI6lz7bJONz2THatjGaN/QIp18+5uE2mgdFidruQpfyDxaqz5LpVJzAHPtDFHhfgj2PdjCZaWH/b7zH4pNs4Dor4A00LR2FbVshYZ0dozK05BtroDYAX5xHO78i0ewGbjLUqN2//+4obH43zc0v29ofvWGRqlvX4aS5URs1Cijj6vdw+L9mTxWf25PmQbUXdlQt0j0tO6lRedtxHFA8qePWKkW1eyPBzHRUXu9Xrkyidk7zBB3PlBK1Z7maW9dEB2bGMPuxijM3r55S1Y8nmnvmO7yio+Mp8FLaZjad0t6k6sYXf9YZ/wVz26jINVpdzlORseRtDPG7e81Mz/+7RhaeBtHX69KryeQ/zEcnjUA8NGPSmX8/NlfoH6Ix4frz13vz4+Pl1/Ltv/3P4/hq8tPa/r2Ow==);lineShape=1;sketch=1;hachureGap=4;jiggle=2;curveFitting=1;fontFamily=Architects Daughter;fontSource=https%3A%2F%2Ffonts.googleapis.com%2Fcss%3Ffamily%3DArchitects%2BDaughter;fontSize=20;" vertex="1" parent="1">
                    <mxGeometry x="214.1374535925495" y="687.5208074436975" width="38.8154396783916" height="39.42460213179135" as="geometry"/>
                </mxCell>
                <mxCell id="27" value="" style="shape=stencil(rVfLbhsxDPwaXwnqSemcpv8RIE5t1LUDx+nj78vtQpsV5Z2iQG+bNScrDmdIahce3g5Pr/ud57fb9fJ1/+P4fDvswqed98fzYX893vRpFx534eHlct1/uV7ez8/z369PU+T09O3yffoPP2dcrZTThPL8a34Tid2fF5/n+NPxvI73VKSLd444bQNKIek/4BKVCACRXOwAnqmCL0ihEHpAplwAwBP7DhA8Sd0G5EQx94BKTrYBqVDpjxQTZUBr8pT7pPUN8zYgZkq1BxSKAQAcxb5wOZIAloKQ63MQrUMGgGhpFa2DBwBnWSqOBNAamLhnqWTyIAdfGusNUJkKOJIqR3paa6YCxOcHadQCC+cHAykA0eoqeXOkxbP3AYkcW0AF8nZMEgcAsKiWVWx8AuoOFNimLCiDxuASLyRA2zzEqzsApUzRqCJRALrz5EofH8kj+9sOVpUBUIBFAEu8igTw6QL5AZCB6JxQEgtA5tcSWFlrCsg4kRJbjhz6Qm6UrIrgQdEUUPtuoVWOyJq5DaaVjDKQkeq0GEBpSr8P4IHW2ni7XwfV5eg0QKtT6fUsOWbYX4TqcCRBg6SVdRXPwPuuUbjud0DbPHgnw3an8eY8ieQ/xvvGxmoioP0lUu17RdFeAfhRp/UaKtwa/lbzjX2FJTVV3Qeor3pr5gq7o9Nm26eQQ2uAWz4wOacMVzZf21BdAEwBrQrJDsGo3gOAOLRgXU8iME4stsfr8lBRz47Wy1r6AmjNbFvkNKnBkXSLNHWYSokWWx60SgmcSNctMSnAlVDELjsOtgqpllMd1KBous0ZL3B7sbX5s5h4NEJ0+TP7I26Npdq9BcfXhb7VeUCr04lXo80X8KPjiLPlE+T7MY1W9QKCq0O+Hk8nHhYpXTSAgP758vjXeH34uKm+HE+n+aK7/t3ebPXVfCsOj78B);lineShape=1;sketch=1;hachureGap=4;jiggle=2;curveFitting=1;fontFamily=Architects Daughter;fontSource=https%3A%2F%2Ffonts.googleapis.com%2Fcss%3Ffamily%3DArchitects%2BDaughter;fontSize=20;" vertex="1" parent="1">
                    <mxGeometry x="473.82644506954716" y="661.895671823388" width="11.018069335835145" height="40.05344348176989" as="geometry"/>
                </mxCell>
                <mxCell id="28" value="" style="shape=stencil(lVfZctswDPwavWJ4g3xO0//ITJxaU9fOOE6Pvy9UDWMBknaaNx1YkgB2AXCID2/Hp9fDENzb7Xr5fvg1Pt+OQ/wyhDCej4freJOnIT4O8eHlcj18u17ez8/z++vTZDk9/bj8nFb4PeO8c+TcBAvuz/wpUON/H77OgNN4XgBaI1+UfSWfgD1TasreByoNABK1qAGMd3DUqvYgkAcu1EzVAJgYHIlb/90BMVLNABAoBgVIjpLbB5REQR8pMcWyD8iFst4hJ8pgh9Qo6h2KJ44AEGxYS6UGohSZij4SZ2LggwQxsKaSpwoyHRo5nYdaySGA7KDJKnRkkDhhjlFDq5SB075R0T6IQAIClJ6mBYABW0Uu1ejhrtltQfSYLHZoIEqZ8sq+gPVFv9Xau7Bv77p/i5gGwItVRZKkRRBSkZZJssTYo/N7s77wFNgn4mTtXQX1hbzWgZS0gjIsrGcLyCBhPlPxFsAgY752Aixc8CBlwfcILmMEfBCluXUSQJAEkEyUuOdxT5o5WxpF5INbARrMm/SZEi2goDykvt5SacAH73ptWAIAtQuVlQsMThQ3pByQB7btTOUONAW3ojb3YrBnb5hdqAKiftaeLU0rU0BCEO1rh6tMD6AhCCeCjiinPj3s0bSs2iZinZSLpMtRcTCmMfWO9NH6IxRC8uQ1i1KBbVNmj6rDGhvsOHklhBj6fLINaJT0kQKu2dOAZAAfY982oNr6Ip3XA22y7yV0Magip3k1s3Hv1Nv2MnbqEilUQQcqFLUYPKwVzLbe+b7A3lQbdblz8PwynJmuI40XpKwmO96JutH63H/f7eGY4+yc4yCr22qQcrA2SsdbxQd1tKl/GQL1nrhtL03ZMBR2GynlRpUBT5qfvdr9B0Ae7jfJl/F0mi+iy//25imf5ltrfPwL);lineShape=1;sketch=1;hachureGap=4;jiggle=2;curveFitting=1;fontFamily=Architects Daughter;fontSource=https%3A%2F%2Ffonts.googleapis.com%2Fcss%3Ffamily%3DArchitects%2BDaughter;fontSize=20;" vertex="1" parent="1">
                    <mxGeometry x="495.2229358702864" y="671.1447771687524" width="10.249454065808942" height="43.92787116301437" as="geometry"/>
                </mxCell>
                <mxCell id="29" value="" style="shape=stencil(lVfLctswDPwaXTEkwec5Tf8jM3FqTV0747ht8veFqqFsgtbavin0bkgAiyU48NPH9uV9MzjzcToefm7+jq+n7cDfBufG/XZzHE/yNfDzwE9vh+Pmx/Hwe/86//3+MiGnr1+HP9N/+Jx5TMwTyZmvecGQMf8Xvs/w3bi/gBdyXsN5HW49eafwLgN8oZgbvCULjuMCRdvgHeWwjmdHXBp8oOQBvlCODb5QcOt4nyi3+bFM2a4TQiSjCBkWIHqybQSSUgYhJ0ulLcGUU3CkVGpJL3ZIgJAjOaMJHokoUmyzahOVAgiJUnckC+pWMkWVpUgcAaGQb3fgiBtBlNEq1edayuvSNktnVUa05EDzyBYpNYS0FH+N4NpuyIEC0Iakidsgisd5TR2hwKil1Gw0IaFCBHKq4xZ5XSf4Wtgl6EwJBc1VzUtaM04r6x3iYjt3EoKDPdofiZfa3xn05MzAmPq0igvAHbrCiTFBtXbSEEJBlc7ai+UyyuhInbzFzj0mqAbyXP353h4Vg84P2UAs2Mo6o8mODKpc1ldisRSRmDqzlJWMCtHbsbkxBTzM6O8IOVQAhOkWspqAnEbuudzKaTIOMGtMNylrAvKBEK7sEID+ZBrQpYtwnOFu/Ck35hOnpwFxhgyClnlHNZ14jwUx2E6vBV/uMvKpSkvtCxJ4nUYWPEOz5O6Sk/EEzYg6AJEWIxPQo0MKtaFW8Ca0eFNXruINhfY80cF+lkmn1URg6KudhXkPXdLoRmMPNWfqRbPYdoD5NBTVRRLhSGzrBHIeuVF6bPXnJVxyIFpXB6LzgwTZ9YPPo5tw+Ti/xN7G3W5+yF3+rl9usjS/+vj5Hw==);lineShape=1;sketch=1;hachureGap=4;jiggle=2;curveFitting=1;fontFamily=Architects Daughter;fontSource=https%3A%2F%2Ffonts.googleapis.com%2Fcss%3Ffamily%3DArchitects%2BDaughter;fontSize=20;" vertex="1" parent="1">
                    <mxGeometry x="485.1825558163832" y="695.8508749350021" width="37.7780394295253" height="3.080279683961102" as="geometry"/>
                </mxCell>
                <mxCell id="32" value="" style="shape=stencil(lVhdUxsxDPw1edXYkm3Zz5T+D2YIJVNKGKBf/766ZnyN5dymvB3HbSxLq9XaO7l5e7x72e84vL2/Hr/ufx7u3x938mnHfHh+3L8e3u1pJ7c7uXk4vu6/vB6/P9+f/n65W75cnr4dfyy/8OuES4kkLigOv09vuBCHv28+nwBPh+czQA4U1AMqAjQS8QDVbUBplOoIyFRlG6Cp/94KSNTACtpI8wgQ0roNqNoDWAGBcvrICjGTRriHzCPA3oC0lkrRrSA4rYGKeEACm85MeVqhgZAWLiW/6di2AVIoOoASg0pzJXEhNWpgBY6Upkrnsg1YyjSGxEqNASD23+sAYSqAGtVHlJgELNAot+H7LBRBnY03jhglUcE5imEAGBkFrGDt6DpaKzEgtyTiMUfVqAcASXy/1UIBiYwQJw9AHV1ij/gMkEDZTJXqWIeaoFCqUU/9pjOog4qvgwEUrZB8R1tIGQml6eiorDXD9lFLolvBugGtoBTGLLXQe3xrhTbqXmNKaNOlK8QKSJRAR9um41jpVvqbrTqUsXBNKQIuKVPIHoBERgMl8QDEJRP7Vqc9ILbawMo+S3Cc2BbLVIcMAGUKKUCxtxVkrPTCJdSi1Ye0iAAg32IcXE+na3Vojt6CpzR7sV96GlEj+QlnIUEu5V6msxZFdbB+8ADjEgJoT+IKMIeGRGACtEgFpbV4L9NMz1Fac5etFZCpgJmoaxLP+gFZkw8DbD7oyKUYAh5B7GdWa9CFJu1ZPAOgAWFGgV1TV1Lsr3RSsgQ6SGK3FmeFQB6R58qZ+wFZMt/sB3WF7mSxkNNURGSKgWRMqxG4ImNMeay0TW7oWknGgAoWjdhpsxq43I31xe+D/96IEkHRgo9fcEbZk0JMBkE7l+mwlLowX94vTyeTKyWuvaBnB42KWFdIXDdDV2L+M4/fFxiQ2U83eQR2co7eG9oLlNHguyZ0xdyahKW675EUmQA7Q2Jdh4637Ckd4cxpU4WN0SA/pmsuHuNIQmeYMDWBkQ7Z88UEjkssWoaOYcVffEjuUV4GxJ7DFVCwuzC3PY5BUXhCNzsS3ApWeOTBpgOAtO6/N+9imgego15OXkwNwKh1mr8DsD0g9bVeK8EDUOFsCmb1aa0gSylOWcK3DCn4SS4rWbYA7PaQe4dcFqTWr8xWgHSybAH8HvAxyQDqyIdV3vbgepSvuJFAxd0cVsglq4PjEisGmN+ZrhqR8TQuzQBGgOTPJFduP//jutQe/l22Phyenk53tef/95ez9up0sSu3fwA=);lineShape=1;sketch=1;hachureGap=4;jiggle=2;curveFitting=1;fontFamily=Architects Daughter;fontSource=https%3A%2F%2Ffonts.googleapis.com%2Fcss%3Ffamily%3DArchitects%2BDaughter;fontSize=20;" vertex="1" parent="1">
                    <mxGeometry x="511.4941491513805" y="691.3774419839463" width="34.477903457428226" height="24.913459766553075" as="geometry"/>
                </mxCell>
                <mxCell id="33" value="" style="shape=stencil(lVjZUhwxDPyafVX5Pp5J8h9UAWErBCgg19+nJ4uHkTzbW3mDWcmW2lK75UO8er2/fr49BPf69vL07fbX8ebt/hA/HUI4Pt7fvhzf8Nchfj7Eq7unl9uvL08/Hm9O/z9fL5bLX9+ffi4r/D75OXFucQruz+lDC5Lavy9fTvYPx0dlH4Oyr1FKYvbvqw37UsRXZl+Tss9Nqjtv7yXo+LOTRuLx0rKyT0EKyRe/VmUfk1QSP9DQ64c6ENu1T5J1voHHnyVr/H2W4M/bN3E6/sLh9FKLXl8igcdXyV3ZrwW1Dyfw1OtHCQROhGvqp0kvxL5bPBGhI3hGL0UngC1bJA5Buj7hWEdO+w5Rqt4h1VHk+w7JYpoBEtshSfN6hyKZObTRs5suSOQY0npKm6RZHaUmKWoH3mdIsWkHNE4jOeQuTlfS0nuk00q0KKFWWeuUJtH0AkLq5x1qtSFdcGhxcOEaUpbIHLJ0TXcR7U+Sbuh/DWuCAynv7sRrgslJPDm4HsbPK8P4scS+Q7I7FDQQCylL0yhVLEFKo9dR/StpeHrSvVtYkVW54KB3QFYXHLLZoQwm33doNgd8uZB00D2NPSOhGcBamnV4p7ZzB+emHTrLIUxJdwlsh/WYNkk7BuskRwArS7rNJ50kESLDDs7sAKrkIRkFgC+MjJF01S3aVmrbdwBr6B2WLmcOkCzGgV9ZC4jNOnSWdLWyCiFVxhp9gtVxmulWmAA3pgS8m6QtgOusIbCFqb7Ms26j/FeHC7jWaYfO67tMDdGlcXLN+uQ2OJxr0t7tFpnBBMVkcG10ZPio/02TdkL4S5M2exCswPcdiJ5BdZapXj0LqQ7y3VwpnsCKm9okjUuLXu1prLdei00CgRWDmhl9cPEmlsN8tQcqsSpoxQxLkTZpLVYAQZo6QvjL8DipvkhCAiamqZeBgJw0VJ/hPghR1g957cjVAVkx5ZpsaSQ3Lpl9bdyH1t7IdaaYINmMxMooPtKiyVstkKGhSEjLCGNGDgRJDg5z1qz6AglpGVw1rLlQcsVkHM2M0ihrQP4btRH5PYpZ1OyArFgDYV4ouoEC15W+War0mTaQn7Sxj1RXLvO6mSAgT+i1aNUGGqiyO0uqjggTByON9ZA2nJEZUdpDQG2zBNaJalOpjLkxC+j+L4VWNvhH1yk4ig594nU84OVK1zcU2db3gX0Cm9Qhf4AqYx5c7TOdrrLFp0H8MfayBQd7/iBmNBLsO8k3TvgU/uIz5VvoQ4O35At7Nlc5+y4BPBlJOPto0BKVU25cLpt6uGD/nw+2l+zxx8fr8N3x4eH0uLz93b4m49PpJTp+/gs=);lineShape=1;sketch=1;hachureGap=4;jiggle=2;curveFitting=1;fontFamily=Architects Daughter;fontSource=https%3A%2F%2Ffonts.googleapis.com%2Fcss%3Ffamily%3DArchitects%2BDaughter;fontSize=20;" vertex="1" parent="1">
                    <mxGeometry x="553.4357884789708" y="687.9194961531477" width="38.20167116975113" height="31.278899463103354" as="geometry"/>
                </mxCell>
                <mxCell id="34" value="" style="shape=stencil(lVjLUiMxDPyaXFWy/JLPLPsfVBGW1LKECmEff7+aGgxjzaRT3IagHltWq9WeXbx5fbx72e+EX8+n48/9n8P9+XEXv+1EDs+P+9PhbE+7eLuLNw/H0/7H6fj2fD///XI3RU5Pv46/pzf8nXGpUKsTSvjf/EugMv/wfY5/Ojwv4nOilIb4TJEvxxfur+vxSjGD+EI1j/sJFNtlQBVKbQQkUrBCraRjBkGpgBRUSMMAEKGiAFApOkClUC4Dmp15HAAxkCJAoqYjoJCCLbXqy5yEGK3QKI85JMsKAAIzMY/MEMqgEE0pj1nnSlUAoHTqdEARqoCszTYwHlOpVMAKqsTjMRm9EF01UiojwAoRAfuUwnhKGogRXSPJyG9NvZbbHdSojJWzrN5reanlwgiwc2NAJutpxz4rZQBJZ90AoMKZyriGMD5GsELSLhILQAXHmiyH4AHoWKP4DpoA4JRMGBOvtgQAoRGvthQRYKXFdqzv2rYNEBL2AAHSZ4DsALU37TYge+mzpm2AfMJdVRYApPcmpdw8gEHS0caBjIAMtdKUsa4ADayQ2orehQQknbMfQQaAU7f5KWp1EDRGQ+/gBQDVwVZoLmlTDbQlK5MDNDjksjmB5AEF9XT0k719bHK70tkr32IoXSKTrnRGQdZG11Y84EpDeDJZmyOArEqtlEDWBvDyXaH0fR1guuVUIEADJB8ObDGCGDR15NXMSpRRU1efg/I1MjkVsEGNpqI1dRqpYVaArzhj505qnwCXpmJe2ZkCOsjmbhyb2gwTBITu8RaWrGAVcA7LXF9GOazobeoZ0QpMYaT3VEpwrCl5nbFJLJgabWSrdXkGbDWvXcakJUIls8mu7srRoP8x1XBm2mQB9nTu7P8AGPkQgL070S5U28zovPm8xaEJxyRjDQRe+lY3gdCbb3vzFNyVD3ru6LWC4VSwQRldOLqV2HVT2cULuvfUbt8/45F5nu6OzcejEaW+6RnbnUjVvz8g6dX1cSZknMWrFvcD245f2eAAvdFXP0hcj7eHz68fD4enp/njyfL//muJ/TR/aYm3/wE=);lineShape=1;sketch=1;hachureGap=4;jiggle=2;curveFitting=1;fontFamily=Architects Daughter;fontSource=https%3A%2F%2Ffonts.googleapis.com%2Fcss%3Ffamily%3DArchitects%2BDaughter;fontSize=20;" vertex="1" parent="1">
                    <mxGeometry x="619.0649403706791" y="665.9430428672138" width="5.349230847680168" height="63.65514337215559" as="geometry"/>
                </mxCell>
                <mxCell id="36" value="" style="shape=stencil(lVhJchsxDHyNriiC4Hp2nH+4ynKkimK5ZGf7fTBRcTQEZ9r2TXGAIZZuoMmd3L0eHl72O+9e3y7n7/vfx8e3w06+7Lw/Ph/2l+Ob/trJ/U7uns6X/bfL+efz4/XfLw+T5fTrx/nX9IU/Vz+hypOTd3+vf3Dk0v8/fL2an47PC3NmCr6zZ2IP7DNxMvalbttrPKl09p5K3rYXJuc6+0CuAPvawm32kRJv24dMsY8nk4D4YyIXO/tKAr6fAvk+/qnCoAGZKefeQaiAjHOhZE5IlEAKJVA0La4NJOsOlWLf46mLsu1QhWLtHTJl5JAsKsQ3XK07FMrGIVGJwKE2WM44YkoBANu5AXmJAoCqHuF6qkUmD7hTlTv9CTFSBjHV0L43O2jnUJlcA2dzSDoPQEhF2dKfkHJDy7qDI+5PyI4KyCEPAyljfGsA0qMvK1pAH5KjbE6o5MEJUSw2ig4xPDS456hyygPKBa2J9A6aA2icBKqhdyhUQdI6hnLfuMpt8qw7RPL9CcpaVCUd7KYPNRIDynEk6ZNWwFcwBVLDwWyv6EazmFK09rBtdiqpfQDxSPvabK89ACUVCs7ae7TbBvvcRvkH40kQE2O+OsAANcd66rJDRLO0UUCg3V8sa9Qe4aEOgEvtCxsjmyRYB1RQHsTFNJIBB9TBZ+tQQArqwIYDhQKokeYwgpRBDtUOO7WPIIVi9c5tM67Pa7tBFotxAxVWIOEDgt0H7ySg+k+svQPfl1bvD3ZABtThFs9SaIkhyEo/sBKBNA6QwyxITV4uWQY2eG6S44Ms/qz9hGiTQGgSd90hUTYI8lCT65WmGhq7JmO2dp85QbdrRJjgthoX+xuFJINoUYXAaDfJEJJeBNDyc02MLlQOuonE4aamOgoBW6Wi2Qc5kCDmV9sHvcwglZOjHV6pwJBUbZY+6RThylc9awWwpwhESxlFPBZele1WVhGPbswqs1LfB20lIqjSJQ0XkQiSVofQN07vOkhI1WHmCVb9mrSRdiJwKCm/TEgeT22liymrklaAeFFomJBUsKK7kYLPLCousEoTNnuJrZNK0M2F2z1ldghwl8dB4bGHDiG2KXTbzq2VW3PJ9TnMF+n1STmX5PY8EgD0tOZmOyTySB9pAn08Sh6EVMo9UHWbAjZ78gbXWEDaTSWtWqvmrg2G21MWmtjOChEPdYiz41qhAPA/vFZwK9WWucEyCaiMsw8PDDWgsyLTwT3A9h3EQV6xveo6+Fbk2yVv8QIKCin2loLl7iffV9811x+3p9yn4+l0fQle/r99+tU/XZ+N5f4f);lineShape=1;sketch=1;hachureGap=4;jiggle=2;curveFitting=1;fontFamily=Architects Daughter;fontSource=https%3A%2F%2Ffonts.googleapis.com%2Fcss%3Ffamily%3DArchitects%2BDaughter;fontSize=20;" vertex="1" parent="1">
                    <mxGeometry x="622.6493286198929" y="664.9285818769722" width="36.48737585143455" height="70.14845650213876" as="geometry"/>
                </mxCell>
                <mxCell id="37" value="" style="shape=stencil(lVfbchoxDP2afdXYlq/PafofmQkpTClkCOnl7ysXHGx5OW3flkXHlnSOLrvww9v26XWzOPN2Ph2/bn7sns/bhT8tzu0O281pd5anhR8Xfng5njZfTsf3w/Pl9+tTtaxP347f6wk/LzhrDBlTYc78ur6ikv68+HwB7HeHDlA8WTfYJ0oR2DOlMJ7/lwssRT8CUnNxFZAT2RHgHBULAJZyGQGFUrkPSIl4jJkTeeBSiuTHG3ygAFyqN6QBEJiKB4BCZrwhOnIgBgnajTwkgwGseRAnA3ApR7JjDBnHIEz7PAJKo3IdEDVA1GVBWj3FMeaSqfB9e9NY7eyvzN+xD+r8RBFoO2jSxN4Ae8sU4giI7c0qoN4QNMCBDHHWwhOAARwEp+u/AvJ9QPSUpxsYkJACuQlw7SHrwhPle51WRh1jzlKCuhAhe6uFEQBxUipaqSJtEENMuicJIALiQtDlKYACgvaOzEhc1/vXxZTJB31FBi3DCrGTTwFpg8qcJRC0bcLpaYD1rGZbSTCAj27S2TtQbtYQT+WWQADiUZkKGkmVmfJcbkB5Xpp0mQBIeWblBofq0+l5W5sSmiSSpajTimjOc1oxwM49RqhExCU9oGX0oKAFYBXAw+IRl6yatwlmSdYiM2ZJBjSjFaAN124DQH3V6w5TVwxQnELzWJx1h8HDcCweWZKQ/7b1t34LA+e7pvtuzcvAnolH/6U9ZRCveDv6I4xkJAlu6bhtwpDgPG3ClFH7NXo021YW6/Zeb3gGDjU2mmADZ5rQmY2ydyCfPrZd6GZvQH5CbPtoZw/yEz/2js4e6EH2Cq/PRyO5bq86nwziLZJufX4C/kvXVC3FwkVKZqOLyh7V439/2v0DQB5uX5Ivu/3+8iHa/6+/POXV5auVH38D);lineShape=1;sketch=1;hachureGap=4;jiggle=2;curveFitting=1;fontFamily=Architects Daughter;fontSource=https%3A%2F%2Ffonts.googleapis.com%2Fcss%3Ffamily%3DArchitects%2BDaughter;fontSize=20;" vertex="1" parent="1">
                    <mxGeometry x="682.6074114575874" y="678.8192328170658" width="2.547932634788908" height="54.697534575830105" as="geometry"/>
                </mxCell>
                <mxCell id="38" value="" style="shape=stencil(lVnLchw3DPyavaJIggTJs+P8h6ssR1tRJJesvP4+YLY4WvbMtEu31agxJIEG0OBc9NOPxy/fHy4p/Hh7ffn94e/r17fHi/5ySen6/Pjwen3zXxf9fNFP315eH357ffnz+evt7+9fBnL8+uPlr/GGf252KUovwyqFf29PgoT4/4Nfb/in6/M9vks3wHeC1yKpLvgoGs7xOUhFfGV4E0sLPkns5/iSxCrgK9l/aWJ5waukfI63LCkB3sh+rEta/Z8l6Dm+qhQFvKZzfAtS1ngVyeS8zeO1vr+Lcnxsa7yShEYMVNq6QMyUQS1iBGKVRlaoTcpq4ByKJGY1i60+cqcWZhDm+zaDKp2w1NzpwApPG3IG8zRYaaHKeWqSV7eqSSBb8kSoQGzu1lylrpH2XFWWallyWA2SZOJWz7Wy5mZ2clfipX0ymDQWhza9vhl06tZBjTVw7jfKVqfGuqURmUITSNdIe+wTqQDdV1jd6jUnkhV6xhR1N7Aa3OssKdOgpumGY4OOZ6hVAtlSDGGSc1p4mme2p46HcMcVtiebXNsM+kzCY4OI3OhpMv44cp5gfTUovGw0qWBQZ+U5qzO6JoS7gfnVInZbN2BnKFHaWvruQnNcBpJoxiUa8asXLqhMbpCIgXcoXbnRna8kI2KTGNGvrDLFiOxztkS2ApbvzqtxwNrqeMbugCLAqddJ4ds02h0+EyI5HvbjZCchCLsYR5o7YXaOOzxTkVEKJIJ7jPg/7fwfxJjqlGQ7PMmbvPOPn4j4fycY/LysZhcJFfFMFRYUkR5fljIFW0LfuvvJ/uuOz+z93kF2+EL2r9gPHM9qRJISd3iWwGIN8ZXgAw45Y/+c/x3xkeKDof+N8GHX/RwfeX0A/3gGkbIecMjpXAHHXb47/9kUiPp35BfNX2ytgQoK3TXKQNvYR/E+oyj0JJ2d89ig71pMnoPV8YltNuo7cWAkxN4msYYaVctDTBc06KTIld0g5W2SzZouREGP+wqs7Q15nfHQrI5WwxHB3coO3RLqcc8cFodWcURwajAxMTJl5ZK/guXCKCWrl1qmcRjMWc8wRtwPCXiX13QFpwYYZCrqXBobCPjAp/iCw6AZTSA/IrQQS5OOx9Qoc87aBimXjeQMvuMMBjbb+tlVDc52Oh19nEAdy3zhZczf11cu5UZvX3waBWr4QMuEXS7z3uFuZGYpmiMOLeMJa/2K5FOj+eBHLOuWNE86nt1EQDfRNG8/zu46IEU10DnKCxnkQ2rTDWfUqOsZhsRiXGqzH9/dOXVG7zgL4zZ4tSnKzm4ioNzHQjVPtd3Nq9Krwlp3qpaKvJqwn7gT2HDa8ASNDl3m2133U7lorjh1VZ7OcfJ4K0m0InmuwdW0TVFw3NE7qp6fKICMg3KhotDDA3mTZyc6xkeUJJnWx6E6Ic3o0OgaySLgjYmwPtXHO17ZpVGb7nu/umcp5nhQtYnWIcfD1Bhn+T59P36qKCReY//4fnpJ1rFl8iE2bleZ73imdNKuYQbK53GLXgHPRMWHPy39FO8/3r9jfbs+Pd0+g93/H797+aPbNzP9/B8=);lineShape=1;sketch=1;hachureGap=4;jiggle=2;curveFitting=1;fontFamily=Architects Daughter;fontSource=https%3A%2F%2Ffonts.googleapis.com%2Fcss%3Ffamily%3DArchitects%2BDaughter;fontSize=20;" vertex="1" parent="1">
                    <mxGeometry x="670.0004122488674" y="679.085465187736" width="41.61764934035812" height="66.19923952626527" as="geometry"/>
                </mxCell>
                <mxCell id="39" value="" style="shape=stencil(lVfLctswDPwaXTEECb7OafofmYlTe+raGcdpm78PVI1cEVRX9U2hsSGWwILLITy87Z9ed4N3b9fL+fvu1+H5uh/Cl8H7w2m/uxyu+jWExyE8vJwvu2+X8/vpefr79WmMHL9+nH+O/+H3hEuFUh1R3n1MK4F8/rPwdYo/Hk7L+EqOm/hKyf87PjtyuYlnoQo2UEApDcA7EgYAJtcy8IkkwB0s5UAOcFDO1QB0RSCAQwOQTIx3CO0OUSgkyEFaQGISBPDEBlDIFwCIFGMDyEIR1UHPxLWA27mtAopQbltpXAGnVDvSRc/NAUCl3NahRsqgcAqQtltrohoBIFIwO5S5HddJ5y4lVRRIKecuJWUFSKc4C/KmOKciBIgYSMRuUUGpRZupWIAAEqPAxB5TAhpVCdfUAjJF0K5em7PtDa1cAIXQHdica5xZrXNgiqZyAkstzk6BqrMVkI7cnZKfR9V6qQNxB4AaVYrJApAgSqTScQiAw3gmYk8JkdZGqGLrEEBKi25elDoikd6G76KZMspJbwizQ6EMdihMbG7FShEP/NSpGl0pUcdA7ACgXSXOGS8ASHJBAcWSrkijpTulDIelatSWOlFGGr0XwKUThJv9yjpAx0bLQTsetSt78gbg4JypVLprtIBhnG1Cek+j0apVaxtJjUAE+QQraHUaAorGdhBvWBlVQpv/hlfSO93EYzPWiX/D7TnyrTI37CTPu/+nX/XkjGqgH/bW6GG7HWYXeMueBIg+WZPHcLqzs2aEZzbr8ck6NkcRmE5NP1cTz6g32XpObFy0taLcEa+tG9wd+YwmvNzBNzlbLoYOIYm1zLheqTOPG+1w7+NuM14//r4kXw7H4/QQXf5uX566NL1aw+Mn);lineShape=1;sketch=1;hachureGap=4;jiggle=2;curveFitting=1;fontFamily=Architects Daughter;fontSource=https%3A%2F%2Ffonts.googleapis.com%2Fcss%3Ffamily%3DArchitects%2BDaughter;fontSize=20;" vertex="1" parent="1">
                    <mxGeometry x="267.8006192680118" y="671.1060700426922" width="3.8743801759418885" height="39.01904004166776" as="geometry"/>
                </mxCell>
                <mxCell id="40" value="" style="shape=stencil(rVjbbtswDP2avBKSKOry3HX/UaDpEixLijS7/f3oZXItKj7ZgL0lNmnxenjEDT+87Z5et5vg3i7n0+ft9/3zZbfhD5sQ9sfd9ry/6K8NP2744eV03n46n74en6//X58myenXl9O36Qs/rnqVOExKwf28PnDk3O8HH6/ih/1xIe4jJWfkQ1yXD5Fc7eQ9JQHylRx38kwurMtzpFA6+Ug1rcvH2b0mn5tDt+UTOent9+T8uoKEFo9ZQchloFBIcq9QKQMXUqTSn3DH5+za6zmmjhLwIScqfZA4kQCFok77PguBYgUK2aY5ahhAnqsn3+dBIjFwukaSPkrJwTzUTL7PQxKK6ITaKnMuJQejpAq1PyFraYATvBurVfsVHVFs5goTI6+T7Z+SqILM1TmxTaE68gxTzb3X+omMism3oMwKCjoAYzJT6YtJvUKgkYamnpIPUEAUJKpVqOCEqGnq86CZEYxLxZxQm5G3gS8MTleKIA9BWnEuFDLwQWHIF6uAnPZM1UCfw9MktY5c+gAy7SgaFzCQeQtLBUNrIGYr74E9TMk0j/YfGg52GE7yqFBbRpf2gKLIJDL4C7q/EMsQT9TLrWBmeZ3mwP7S+nbR+mj6F/Imv4wHFXnTNDoUAHgJ1WLlYRtbslPlTj1Ye6TNuZX6rN7aI8B+BYli4/PnyYp8YBv/CuphGDea3wryNX5fqQbwV986K4+A2revLeqZERsc+r00WF3Lb7DyGcQz2fioPQjf8g38EVA/pU3SRXyQv6V10yJfAdg/9m+AdELxwfQvt7n2X+Qz5WrlBdSb3j4M5dKGiUihDhUdId9XiPAD+RAQUp3D1mdMTOPYNIxBqFAMViGgG4WS9aHtUZT0RmFP8HAOZz8U0uzVbYVsqcGdzlEWmnpqoE/QvUstlj5xxUMsmoLYm6RsHA0zDWLpu1nDgNB6CmKfByWeBZSGxiT01Zo00DhKvvdBcx8QYARbfOJgeWviDGuMEVKWHMj1JrFyFsRxkqX7zNAkqRY1JtxB/cC2vCfihlo0W5MUR9BVMHrrtF76CzCJxZaGD40L3FbQ/jJ7CNf2BreBzLdL1vuiA12wJ/Le1560lv270aPXC4z0VhyBZLKDH+9Qkq3qCGmmWNoeG+9cEWe7kkKuiiWBoe1rVsRDNuIeVf+wLYITc2guB2/3iTIbcUGw3kpqsQyE9CDa3SFif/+4mrwrrj/et6Av+8PhukRdvrdbU3103bjy4y8=);lineShape=1;sketch=1;hachureGap=4;jiggle=2;curveFitting=1;fontFamily=Architects Daughter;fontSource=https%3A%2F%2Ffonts.googleapis.com%2Fcss%3Ffamily%3DArchitects%2BDaughter;fontSize=20;" vertex="1" parent="1">
                    <mxGeometry x="267.7317841665815" y="664.725952655054" width="35.29693968180944" height="48.45373202230599" as="geometry"/>
                </mxCell>
                <mxCell id="41" value="" style="shape=stencil(lVfZbttADPwavxK75F58TtP/CBCnNprGgeP0+PtSNRSblDVF3mSZoyU5w2M3cve2e3jdbji9nY6H79tf+8fTbiNfNsz7l932uD/Z00buN3L3dDhuvx0P7y+P59+vD5Pl9PTj8HP6wu8zjoWGTihOf85vMrX878XXs/3z/uXKXoTY2zfKvG5fMjH77yeSCgCDJHlAIQUe1Uo5AJRU1wEtk3YH4EoduNQGdQ8QptTXAb3Q8C7JxyduAkaiUhygVGrApVGJvUuVqSKAkjQPUCoAoEx9eKIbsQCAeexd6vYJQJwOSj7oPqgB4tQ89loahXJbB+SUKHkixiAt8AjxQajMn7gNMHH6NFlYBQRhPCWOAAYn1ETdx6B9rqk1gPq8qjGHKsh4Ci6ZvEBereRG9YBCZYAKWvBgaVVwQitzRV4BOlBfU6oaAQMwbTWacowBBd071RYBKIauNFpM60A1mmIFGXEIYCfoQhoQ0KkFaQzY+ixLWTzAihARpwst6Txh1piOA+hStWtiWvrUUclV0hoBDNrxVBAa01RxjYaRYkSgdmyAFtpGowrkWvOstSsxVVSjZSGmMlNzG2AhSgRkxIMseBA45WyOLrsAAtgAaRxdSoDp3maaroMGMVgFcV2kFbWNTwNMrRoBqH33emtmgdZngOZPsLEo+AQJg1cpoROEmmfa3qCtz4JWT5wtDx1kqdlI8y5NIwP1GY6drMq8ON6Wd6fkK66YWFAT+NhTP5Y462QgS0ViWm1ZFhCDmHK8S9wpA5d4xOXbtvUKXLK/hz8ht3lO3t6YamxkmeFUtGnglTFgBCn6I3MKVswDZzxvW2vmKZijq0aKEspQozlOkUwZOCMx1AQ7UYvXHpMf2rbnC8jFHDVGYzHs2njGmg6SRHu0afe46yQomym66H8D/hiTYfXP0J/PXmv/b28Plzv00/75+XwFv/4/3rnt1fm+Lvd/AQ==);lineShape=1;sketch=1;hachureGap=4;jiggle=2;curveFitting=1;fontFamily=Architects Daughter;fontSource=https%3A%2F%2Ffonts.googleapis.com%2Fcss%3Ffamily%3DArchitects%2BDaughter;fontSize=20;" vertex="1" parent="1">
                    <mxGeometry x="301.313724944411" y="672.3284607033856" width="9.665705668310316" height="46.31499367916666" as="geometry"/>
                </mxCell>
                <mxCell id="42" value="" style="shape=stencil(jVjLbhsxDPwaXwlJlETxnLb/ESBOYzSNAyd9/X25NbS2KO80Nz/IXYmcGY6047u3p/vX/S6Ft/fT8dv+1+Hh/WnHn3YpHV6e9qfDu33a8ecd3z0eT/uvp+OPl4fz99f7JXL59P34c3nC73NeVIp5yUrhz/mXQEn//fDlHP98eLmKT41SdfEct+NZKRUXH3k7vgRqfj0hbMfXRMU/P4H1CFPVIT5SlO34lmn57yqeScD6NZGEIb6RgPWoUB3rGQsFkBDDWpCeYVtooGXaqMmYYE0BNVX2b+BCUkGREumYkANJBl0IVHlMYNIE2hw8jHKhBvpQm99DtkaAKolQGYFRmDJCRiEdy1pa39XtskZfpZopg7Jq9lwTDFad+iCNYgF7MGiMbzC8C4BGixTGBDXCIr4Fzx8tlBGhufNlTRAKDShGJR2xZIBHEpaV2oglNREEfcimMeITEKmNLqw+QUEfUqLaRhUIWPdW9F9tWsGm2cukxSN0Ry+T1oUCuhD609b4ShmQYRIxgwWaCzZlxrFgIoVwFym7/SZITu5TY41fK7BRf/98oybol5C654cO2w2ZJ67TC0ADooGUfQJSyJgpqi9RAxpsgym6HmcK6A1GA5dQ+q62liQTiiqYI5E7yK5giiZVNFyMRDMeFDQ8vT0yJgewIlvvpC1IvUzixa8H4S75OagrsjZ404KvKEKF8XJqWQE6Eab62I5QxybeM9Q5Q/VEAwXryd5OWXwCgFhnyzUvwfp1GgW2I6DsemP9KN427KfZahtuC5d5iOQTGppmlXhKQK6iSGf5ahIUYqKaOI7K0qTbhttNiB6ljXsfbyfU7pFXo6PY9jePU8E4XRLGKlXti7ydUPzBxcqA+mDOyI3kGkmAVNhRh8cE60wBmzYDG0fwLZYWQSP3s82VaUauwly7c3fmlRhhydg4voHx+aioH5ws0NJamxwfFjcGxpoZfwcNTtBa2GnHeQVjOZpSi6cel3SxD5uHzrHTi86CPpgtlzFhGdbotNO8f7HJiPYg6zH/cq5FfsqwXNxRpE/GD577BfJzvlewNoKmzfcWFer8fC9i8chYSC/fJR6xP1ZPhAo11ayRqouPyKyxj7c5juPTOAgzlDuzm+qYTwE9f4pfpeOD60mUsRNUf6+D7mnmekZ4/pj7Faiifk14CP1M+EG84Xu4/8fbh8ul3+Ph+fl8Z3j9v78ktJ/OF4z8+S8=);lineShape=1;sketch=1;hachureGap=4;jiggle=2;curveFitting=1;fontFamily=Architects Daughter;fontSource=https%3A%2F%2Ffonts.googleapis.com%2Fcss%3Ffamily%3DArchitects%2BDaughter;fontSize=20;" vertex="1" parent="1">
                    <mxGeometry x="300.1505088271367" y="674.171537952597" width="24.338720613665263" height="45.76959791931601" as="geometry"/>
                </mxCell>
                <mxCell id="45" value="" style="shape=stencil(lVjbUhsxDP2avGpsyZbtZ9r+BzOEkiklDNDb31fbjJdIm5wpb2HR8UrykY60O7l5fbh93u84vb69HL/tfx3u3h528mnHfHh62L8c3uzXTj7v5Ob++LL/+nL88XR3+vv5drFcfn0//lxO+H3C5ZQopQXG6c/pkVBp/x58OQEeD09ngDGodGefM0mBAPEvyEolA0CnUR2AM/UEAeJd4kYVudSohZiFmgKAUhcHKIkEASo171JpxMilQuqDroVyBwChmh1AM+UKAEzcPKDRGACQaPgstTLv/iKgj+hST5BLfXVgBVjeQAxdidUBzElGb7AkepcGTmvPlHyWjCwFXFzTyc0VYGkAMbRMjX09vNfgRYQqiWffUiIMAIlqSJNCn4xr7C/C6JXBG4zN4Q3dXBIAMCYEgMwyvwiwihR/Ea1DbrCF6PPahBTEwGnWy1oQnRSQKRv9fZbUyIS6ALVQogna11hwVUkB96zgPS/qmuWL9vZ2f37BrTuRev8LrrZMxfsjA3Z6jvmUTh2cL/N6zuwVdLBCvWzOB/Z1/vfcf0A5jTKyqAJgXKM8Yv4LKPxGEvLPVEHzapR8vMVkDRSl6bCvmFKoAT5UqiHe9cmV/MuI9qhJCHHe2IN4mZJGewX8t97eY7zo/BRbkNkn4P9mlLL7GoD/Zh/iXbXhin3Z8E1B/jf9wfiMGhzPnn9mn4D/EicKq68G+RA0YLEH+a9RZMwfxnzWmB8krG3DH2MIrN9tPaJhwuo98Efg1Phx+zBZF4V8zmm241UweFLkMkCigtU659TLgL6RpFUEL1NOosaYpjICjCiSptooaNnM7g0P+0uR+7ZlkweSsZqJfd10hn2ottkWVoDOIy4TW6LS2Kyd8JBZfasbGUpfa1MpziZrpGU2KIufnrrAm7acDI1pHaA6bXYvm4vL6A01juI2OXe8ToywEtmIBATQhtzQsavMmr22EkVJWFeYa4Cx6dlIY+2aQokK47UuxyawzDFo0+Qom5whWw2gfg7JFbskcUvLeY4y1wASlAoP4jLnuDWEKe3X7JsnRoaDuC2VYS/NUHjMPkyaCV9ynZvMuz2MV+MdYyG0HZfj+TD/m8U9QVbbvqo92KNBxFboTT6R8Ju9jmCPBi+zH56hjDe/j34l+w+A/Xj/KHd/eHw8fdM7/3/8iGePTh8A5fNf);lineShape=1;sketch=1;hachureGap=4;jiggle=2;curveFitting=1;fontFamily=Architects Daughter;fontSource=https%3A%2F%2Ffonts.googleapis.com%2Fcss%3Ffamily%3DArchitects%2BDaughter;fontSize=20;" vertex="1" parent="1">
                    <mxGeometry x="233.41235061148586" y="546.9497120421008" width="38.78516375038324" height="38.98059302672695" as="geometry"/>
                </mxCell>
                <mxCell id="46" value="" style="shape=stencil(lVjLbhsxDPwaXwlJ1IvntP2PAHEao2kcOOnr78utIdvkWuPm5mw0K4kcDoe74bu3p/vX7SaFt/fD/tv21+7h/WnDnzYp7V6etofdu/7a8OcN3z3uD9uvh/2Pl4fj36/3y8rl1/f9z+UNv484SdTagkrhz/EJV4r935MvR8Dz7uUC0JlqtYBCVeaAxsSrHRrPATVSThYg1MockDuFYAA5UwNHypGKWIC+Alxar1iyAZRIDQECBRulUqinOSAV4m4ANVCMAKB3KBaQqYQ5IFbKNkqamQLyEDN1e+keqYI86A7u0r1RqvDSJVqAwB00D8EBOkkDmdaYWC71CncoiVL0l+5gh9KorsKKqFH0xHaH2kdmrgOEgs1DTePJ9EhsyZdJ0JEyVbtDbiMz1wHKTVtAWqIC6K15YLsDJ5zpRtneQckiiEtC3dZD0kOiiovE9g5K+AAAxW9QqYCgZspW9hQPQqq1aGsn31juaKqyjPSIsg1/gqWfKdmrRigtxUtRgIdpnjyaKJBZ8TUfhtxfV6EwhPa8PoFIxuTbTYD1G1cNMI5ym8mo41mC/VLXu2jy0OHZ+mjjk2Gh6PmjUwcS9H7tdFbg6gjAJF1iG1mjAPSzU8xueQTZras2OfzLhMjdL0dv51Fz59AgZvLobufIB7icbSDT6AST5WLzFKGDKCPMZxojRdYketYziEz35iGMqpwVYWK3HgVeSSb+OAVZjQ+uV1YWe36Bisbdi0Is1FCDO3naU3ITJIP2XGcp9UgJ22JnlrRHoh1qG+Q90bNAO9a0IzrTyoMlM2vfnTQoR9EsoI3FWRkZ6nIdkHxFtgrVUN/n7JgOLBEohLrm5lxuxw5R/22PpDMU8qA6KriGIapCN7yPI6sQI3avWkwMN5pkHD3otEWHYWIK4i+NuljwI1kv8P3BzxqaZ+Rxk7dLLcAZUccrW8+1QIfbRw+9HMdQl2fftW947ig+olkgjfQKzsMt5Yw8X/Ks0Lk3INcXhv+9UBg0g+qU4FoUM6z/ZQi2tGDVHLBDZa/DqpKMFCZ4+6GGAuWhryyCAhhESbQvy2oHUGuysseL6QGXVnnwO3TY3bR23TSw9BJ0JPGtgbFeKKCtAILqIawUgCM0JLIa4JTANwC8Zh+oIA1TdpdQ8UeJaJTcmFsg+zTVEjygA/ZJ9i2XcW/48Pe6/wDoj/Pnwcfd8/Px6+Ll//3nRH10/BTJn/8C);lineShape=1;sketch=1;hachureGap=4;jiggle=2;curveFitting=1;fontFamily=Architects Daughter;fontSource=https%3A%2F%2Ffonts.googleapis.com%2Fcss%3Ffamily%3DArchitects%2BDaughter;fontSize=20;" vertex="1" parent="1">
                    <mxGeometry x="271.93138635074365" y="548.9396661435894" width="22.284984920426158" height="35.49517781007878" as="geometry"/>
                </mxCell>
                <mxCell id="47" value="" style="shape=stencil(lVfLbttADPwaXYldcp/nNP2PAHFqo64dOG6b/H1pCKuYlD1obrLE8fIxHHIneXjbPr1uJg5v59Px5+bv7vm8neTbxLw7bDen3VmfJnmc5OHleNr8OB1/H57n369PF8vL06/jn8s/vM+4GAKFcIFx+JhfZUrzi+8zYL87XAF6p1KMfWSKGQAahWgAzNQaADBl65EkinIf0BpJN4AUiBMACDUbQyqU+n1A7RRtDJmpA5dqGg4sgE4JBF06STWAkqmDtOpnyQZQeTh5G6CFFgPQNES+DwjUbMwdFzpRZ2sfSEAVYqTcrEONOohAPYqWGK1SB0nlvjqhUgEA6RSSdymAHKVKqa5iACfk5LtBs5RAlnIdNLgqAxcAUAdslrqSEdQtF6ruhEIMJCBHqpZJvcLCpURi+01VJIJ+E9Wg6AGQGpmaJd+VsN1mX6ES/BEJpKlRdS6p7CCXBg+uslqBQysd1rI1bG9FT3mB7MUrkhIPpbQPcViYrRIFJC9Wr5HaCgwAXEhW3VmBR8qKXjyggd5R3rVVO2fAO1V1l1QNuqNWKN6lHqmAoC/d6XpHsEt1VHUBZMoVA+JXADzOX2KOo5nuEcMNngBHW5QxW5fRluDgic3LRcayrdyOlkkqUWhjYNUrK9tKFTgYqh+ewkMEb1NP/Ama54AA6pLNks5HKKo6q2wdMkVQZrV3zBNMbR7du0RAFVQtqwRb+whTqvtItjzVhQMtPMVPTl3ywP/rOrSyRwOhNs/rAAvWdJI3Zy9gLrdlvHzao01BdcFJS4T50RksVux4LGT3Fnm/NcOe+fJN4T8A+vB5MXnZ7ffzveb6u7/I6Kv5EiSP/wA=);lineShape=1;sketch=1;hachureGap=4;jiggle=2;curveFitting=1;fontFamily=Architects Daughter;fontSource=https%3A%2F%2Ffonts.googleapis.com%2Fcss%3Ffamily%3DArchitects%2BDaughter;fontSize=20;" vertex="1" parent="1">
                    <mxGeometry x="295.8354120996289" y="556.5242264362685" width="5.872808062991398" height="28.172441647494015" as="geometry"/>
                </mxCell>
                <mxCell id="48" value="" style="shape=stencil(7VnLbhw3EPyavTZINp9nx/4PA5ajRRTJkOXE/nsXveHssLlTggEfcvBtNeoa9rurOSd98/n+/ae7U3CfX56f/rr79/zh5f6kf5xCOD/e3z2fX/DrpG9P+ubj0/Pdn89PXx4/XP7+9L5L9l9/P/3T3/D1gnMSWgcF9+3yoCUJ/seTdxf5h/PjTl7FuUm+Nmn5WD6JL7M83u+O5Yv4OstDw3As30Rn/UuUTOR9ED8bkKtoIYAobdYoe6nshCItTICURAkAMchxAsQmrhGASsgzQEVJ0BCFOKukVZISQBPvZ4CXkkhaOHHVAjxxKwB1Tgw8UaIS3tfSBICS//ntNgBeWgCeAZA5cy6FKpXktuaRynsAK54iuVqVHKkGxb8XGyLJpbhVy86tjrg1+uGTHYClNwDFAPCEnRBsy9AghRiNE+ocB4Qyk3oAwKY3QslU2gpyKyBHcylmSabislR2QrFdI6lUdgKSeT4BbSYSo9Pm9Q2wJcttQLT1UJJUBoCJphd7DoANptmjQuoxIC8qNUfroffqak9gbQbToM1uLY3mUqlD452XImkC8InO6V2cRGJ0jbZE4YZIcgkmttmt18jcBixdI1YpxAZ43bg18jgAUOYT0AQCSe8OmG0ISG8C6LRiVsmjU5G+VNFbjUpjJB3Kz2EI1IJabRvzPGrVusjRCQqDqzPygcXMj75+lXdk9rRgex7kWcR0MISrPJvPLa7ybHh2nhmMPxOpZMgnGy8lhdxWziOB699myhO5P+Nw31WejRD439JC2q4RXzMQODFfazhREol8C2r0L+T9yGc7M1+rx5KN/5X10SLJsK8R8CP5OuvvaWOH/nHuQI4uLvBPtPkceUvM3sg7ls8Ly3ml5aolao7nwzJm3Eioo3px1p9sa+n1ZTr62Bl+jXyxU8+jgbKCb3bV7Bawimwj4fdDjLjIO2dnQHwlKZokM1gbj8JSZanytpstIGcpLG7o63MeFR3k9iixzUoOChXZJFtUAuWJrLUEm6oo1sRIWhk8dOONgd4SgDearb9tpOqI+5pp1jhZRlw1WRsqOaGvFHP9V6UkDTu+KQi4ITGVQJgM4XejBm9vm0uLzIGWHBZgN1dQSrSoscgZOg5mylgIVsVkpnIYVh1dE6gp6kzn7O+biw3w++bif39zAbeaJqCJTiBEOi4ji3mpl+hsQ0y03atfRpanmxdSzdx3pkILCEy2mTtbpdnaqb6ZcY4uC303m20omQ5FXy077EOMXSNnO4FAYNn9jtfR3Hczjk1R0COz0IJCZQ4wjK9t1ysHd+2GCIDesOZd7SVyp0Mkk5b7Jsize440FsYrQ+QcOtp7cxzQ+MeOxQBWnd6ukJ2TEoP98v46xt1NeTe+VOwizCjDGuA8ltAj+YUlsdn5sx+PXpfHj+uXqo/nh4fLh679/+2XLTy6fBXTt98B);lineShape=1;sketch=1;hachureGap=4;jiggle=2;curveFitting=1;fontFamily=Architects Daughter;fontSource=https%3A%2F%2Ffonts.googleapis.com%2Fcss%3Ffamily%3DArchitects%2BDaughter;fontSize=20;" vertex="1" parent="1">
                    <mxGeometry x="308.0509157673073" y="542.7033213827572" width="24.8775195320032" height="37.937290303219584" as="geometry"/>
                </mxCell>
                <mxCell id="49" value="" style="shape=stencil(rVnZbhsxDPwavxKiqPM5Tf8jQJzGaBoHSXr9fbl1pa4oe9YF+uZsNCuKx3Co3cnN2+Pdy37n3dv76/Hz/vvh/v1xJx923h+eH/evh3f9tZPbndw8HF/3n16PX5/vT3+/3C0rl19fjt+WN/w44WqlHBaUdz9PT0KmmH4/+XgCPB2e14BCdQRE115xCRB4BAhJBoBMOY2ARFIBIFGtI6BS8RDg/ABIQhHtEKjEEZCpIIBQGAHZUxIAYCpuBGgcgJdKbQY0QPEUwA4lUxoDp08c2iGSG3dQIz1wqxrA4w7qtwx2yMUeWmMfEGA2qZJjAOD27xXgTyjPAlKiNCYfO0fOAYQ/Y1MBFRT7GVcAlH3RT26q0E2hkA8TAEQuCJUZAA4tlZK3AFSjEimNBbEQSQEApuotAMXBK8+UEZCIgZd8JG8AQhmcwXsSA3AUQTKxkut46JIguXK2tKE15QG5crSHVtrIwK2skR4LIitVIZN8S4ROfZUYeImZeKygFKgiL7mJjR0JKOq5A0WKIDOUqsd6046FmDK1LOgtUTMFJJKm9rheMMcEimPMJJCA6hQb48UDKLEpjP7RHR2KGEWz3pEH651NIU1bAeft/NnXCyUQX2fLDBOw1iCb5R5E17U+3K2BzlFxMyanh9TrWvX13IH16yyzJ/LwqObtpdXadbZXqtDvhtO1lD18fTRx1VYIuMc12bdaj+pK4xitPQVG1sgPdpALNa1MS9o4rpESGbbIKetj08GXlo/GC+Q0PaupwUZyl1xpayThSAWzHClFZwWN2yipWM1yNEA4S6+qDHDSJ+PIBMh1qsDY2PDS20djVKXDt5vpSlUStH0SnxthNczNW2kQTIX7poH+03ph43sGOc+2RDJVkPNMme1pE+yDyfBTahV/oc+mqQ+iTAtW3Sl7C+Cn2MaC7h3Gs0jbva/PjREv6CJDIcFDyql2cNHRPyCx6ayy08lkQwoaha2TfMZi07QUlYJQO0rLmA6IxEj/xibAV3IWNXTuBb4SzDBL66SwC2zqi6IYd1gGaXAGTSRTZjqqo+FLM8O4teApYRm+RpFUaiuma8c7B68vzgyQDs6DZ0bUDcA8BDPUkWfGbG4Vde0gz02CXHtVwDBwy21EtAA46sz3HQxni+VGZZpp0XCkyZzHQ5cCVdmSzCb5EnTrcu9kkq8P3pdutkxNq5HwZqtOXVzgzZY6MY1eSniHKiSGlzxlELgaWivrVJnxLWm0NBMxa9RkhZHSPQpczVZdhACvCmrnuQ5gSJV1yiWlhYpMqo1UVi2RMcAUkCQ4O8/34ds7FG8B8C5ZAWb8L1A2KMDcd6iXBLm1NmLscXDtXulCY5+GFY0cStdzCIHsesaoANXMfOwQ4cA1OzYkXEJTp9aKYLzDP34s2Qboj7/fZh4OT0+nTzvr/9tvOfro9B1Ibn8B);lineShape=1;sketch=1;hachureGap=4;jiggle=2;curveFitting=1;fontFamily=Architects Daughter;fontSource=https%3A%2F%2Ffonts.googleapis.com%2Fcss%3Ffamily%3DArchitects%2BDaughter;fontSize=20;" vertex="1" parent="1">
                    <mxGeometry x="199.53271197229856" y="802.1927094160603" width="314.99236393379715" height="20.53239807148704" as="geometry"/>
                </mxCell>
                <mxCell id="50" value="" style="shape=stencil(lVnbUhsxDP2avGpsyddnSv+DGULJlBImpLe/r7YZb9by7gm8haBjW9bRkeTs5O79+eFtv2P3fj4dv+9/Hx7Pzzv5smM+vD7vT4ezftrJ/U7uno6n/bfT8efr4+Xvt4fJcvr04/hrWuHPBVcLVTeh2P29fBOo5v9ffL3Yvxxel/aJRDr7SOyAfSBXjH1C63uK/fqJOG3bl0LBGXt0/hIo9efJVND6jsR39pW8bNvnSIE7e+/gBtmRqz1A2pWtAlKgEHpApMzbgKhXlHtAoYIATKGPAXO75VVASANAaVIBwFHsnRZHKW4DRFnZOy2RvN8GaJiC2aG2yK8Dgg10COSBD75a5oXS9lwHRHL9DnrRAuLgPfne6YiTJ1M1uaknAj5Hkn795KgCrgqF3oHEVIHHkWKfa8rdBOzLcJ5EGfirF1T6ICcNcgCARN5kv3oAeMe+sWwGJIqId/O/G0AVhIEPwk1PZoA0SV4HZMr9LZUMdwhifah6JOB0UB71t1SZIuCF8pj7OKjsM1KYRK7PnYrLSKy2jCgAJVvy7cTLHZCsCiVnfSjgWpWbqY9DFcqAGlm5lOy1MvBBAXYHbtVlHcDksgUU4LQCTEarDwn5wJTE3lIEGaeAPEQ6Ig3jdoAZkFpktgBiqJEp3rgl40MhRjXd22qlAFStpkizBWQEmKvfAoBkJs8ZvHAaSbcKYx0AHhxJAbnYOHiUDwoYMs6DOCigDKqBAOq0N/QWqHwKiMZpvhU4U6IVIJgaYZBKQfngbY2ejoREgIcGVPAO3PJrKcY3ctrEIeJ8UICJdMJxYNuBKvlu7GClspBD1PAtv5YJhCPNxQJgin4WkPLApQqlUiuQkUrvXKuTHy1yFTdkpYnEAlBQ3Y2DClTYO0Tfxq+luKLuJNsmcdJ7wI3AQ1XU1h3NDrn1IjPAtxFqHeBtBumUiaRPG12jZNcxcx3gKPR0LR6qsc4OZujLGVb2aXboyaSTKeJSptAzY6rc4JKCbZdUbAsIm7MDnOYH6gOc7RB11kAKwC23Pjj7BEs77UnR+bMtuDHAWUzHfqN5U2qACu2DfVnReRL1YjrF557XOrGicUnnN9O8hZmH64BCZZi6KziSDEO05pIAQBjCrANURi8HQ6rxXFw2Bal3Wu8tgCPFudLMAL1WwAwdai1gfsTa7JR6p0trnbbelExbn0iQ/VwErm966PlGxUr69RmmwqSGxmHYcKvcmvHQwSldG5zKxh69xEzdh10fSZ1WpJKsPTpPtSO6a+K6ZS/2PILtzcjjYAW81uzr/Tv0plqHFGgDzYZ0jVkJ698qADF6OpERFtjTTh6zsUezea22RwjwpU3tzastFveJEdnYF8TQz76y37TXD9cn/afDy8vlF4Hl/+1PAPrV5ecDuf8H);lineShape=1;sketch=1;hachureGap=4;jiggle=2;curveFitting=1;fontFamily=Architects Daughter;fontSource=https%3A%2F%2Ffonts.googleapis.com%2Fcss%3Ffamily%3DArchitects%2BDaughter;fontSize=20;" vertex="1" parent="1">
                    <mxGeometry x="171.34128872321185" y="799.457943362034" width="94.87485852222217" height="43.27660005895645" as="geometry"/>
                </mxCell>
                <mxCell id="60" value="relation&lt;br&gt;foreign key" style="text;strokeColor=none;align=center;fillColor=none;html=1;verticalAlign=middle;whiteSpace=wrap;rounded=0;sketch=1;hachureGap=4;jiggle=2;curveFitting=1;fontFamily=Architects Daughter;fontSource=https%3A%2F%2Ffonts.googleapis.com%2Fcss%3Ffamily%3DArchitects%2BDaughter;fontSize=20;" vertex="1" parent="1">
                    <mxGeometry x="245" y="822.73" width="180" height="60" as="geometry"/>
                </mxCell>
                <mxCell id="68" value="Tvungen att konstruera klientens data frÃ¥n data i olika tabeller" style="text;strokeColor=none;align=center;fillColor=none;html=1;verticalAlign=middle;whiteSpace=wrap;rounded=0;sketch=1;hachureGap=4;jiggle=2;curveFitting=1;fontFamily=Architects Daughter;fontSource=https%3A%2F%2Ffonts.googleapis.com%2Fcss%3Ffamily%3DArchitects%2BDaughter;fontSize=20;" vertex="1" parent="1">
                    <mxGeometry x="172.11" y="443.71" width="300" height="50" as="geometry"/>
                </mxCell>
            </root>
        </mxGraphModel>
    </diagram>
</mxfile>